<svg width="63" height="27" viewBox="0 0 63 27" fill="none" xmlns="http://www.w3.org/2000/svg">
<path d="M27.8283 5.85685C27.7399 5.99798 27.6453 6.13206 27.5444 6.25907C27.4497 6.37903 27.3299 6.47429 27.1848 6.54486C27.1091 7.03175 27.046 7.52218 26.9955 8.01613C26.9513 8.51008 26.9009 9.00403 26.8441 9.49798C26.7936 9.99193 26.7337 10.4859 26.6643 10.9798C26.6012 11.4667 26.5129 11.9501 26.3993 12.4299L26.4088 12.557C26.4214 12.6981 26.4056 12.8322 26.3615 12.9592C26.3173 13.0862 26.2984 13.2238 26.3047 13.372C26.2164 13.619 26.1407 13.8942 26.0776 14.1976C26.0145 14.494 25.9766 14.7762 25.964 15.0444C25.9009 15.1643 25.8473 15.2949 25.8031 15.436C25.7653 15.5771 25.7243 15.7218 25.6801 15.87C25.6423 16.0111 25.5981 16.1487 25.5476 16.2828C25.4972 16.4098 25.4309 16.5262 25.3489 16.6321C25.33 16.7944 25.2921 16.9461 25.2353 17.0872C25.1849 17.2354 25.1249 17.38 25.0555 17.5212C24.9924 17.6623 24.9294 17.7999 24.8663 17.934C24.8095 18.0751 24.7685 18.2233 24.7433 18.3785C24.636 18.562 24.5288 18.7384 24.4215 18.9078C24.3143 19.0842 24.2165 19.2676 24.1281 19.4582C24.0461 19.5005 23.9736 19.5464 23.9105 19.5958C23.8537 19.6522 23.7969 19.7016 23.7401 19.744C23.6834 19.7933 23.6171 19.8357 23.5414 19.871C23.472 19.9062 23.3869 19.9239 23.2859 19.9239C23.2607 19.9239 23.2354 19.9204 23.2102 19.9133C23.1913 19.9133 23.1692 19.9133 23.144 19.9133C23.0556 19.8357 22.9673 19.7581 22.879 19.6804C22.7907 19.6099 22.696 19.5464 22.5951 19.4899C22.5951 19.4476 22.5888 19.4123 22.5762 19.3841C22.5699 19.3558 22.5636 19.3276 22.5572 19.2994C22.5509 19.2712 22.5478 19.2429 22.5478 19.2147C22.5478 19.1865 22.5541 19.1512 22.5667 19.1089C22.5099 19.0665 22.4437 18.9889 22.368 18.876C22.2986 18.7702 22.2639 18.6784 22.2639 18.6008C22.2639 18.5302 22.286 18.495 22.3301 18.495C22.3175 18.4244 22.2954 18.3538 22.2639 18.2833C22.2386 18.2198 22.226 18.1527 22.226 18.0822C22.226 18.0328 22.2386 17.9798 22.2639 17.9234C22.1945 17.7399 22.1314 17.5494 22.0746 17.3518C22.0178 17.1613 21.98 16.9637 21.9611 16.7591C21.898 16.6673 21.8475 16.5615 21.8096 16.4415C21.7781 16.3145 21.7529 16.184 21.7339 16.0499C21.715 15.9158 21.6992 15.7853 21.6866 15.6583C21.674 15.5242 21.6582 15.4007 21.6393 15.2878C21.633 15.2455 21.6172 15.1784 21.592 15.0867C21.5668 14.9879 21.5541 14.9209 21.5541 14.8856C21.5541 14.8432 21.5604 14.8115 21.5731 14.7903C21.592 14.7692 21.6078 14.7409 21.6204 14.7056C21.5447 14.3669 21.4816 14.0247 21.4311 13.6789C21.387 13.3332 21.3428 12.9874 21.2986 12.6416C21.2608 12.2959 21.2135 11.9536 21.1567 11.6149C21.1062 11.2692 21.0337 10.9304 20.939 10.5988V10.5035C20.939 10.2777 20.8602 10.0978 20.7024 9.96371C20.734 9.85786 20.7498 9.76966 20.7498 9.69909C20.7498 9.60736 20.7371 9.51915 20.7119 9.43448C20.693 9.3498 20.6709 9.26512 20.6457 9.18044C20.6204 9.09577 20.6015 9.01109 20.5889 8.92641C20.5826 8.84173 20.5889 8.75706 20.6078 8.67238C20.5384 8.5877 20.4816 8.49597 20.4375 8.39718C20.3933 8.29839 20.3365 8.21371 20.2671 8.14315L20.2577 8.07964C20.2577 8.04435 20.2671 8.0126 20.2861 7.98438C20.2987 7.95615 20.305 7.9244 20.305 7.88911C20.305 7.83972 20.2955 7.79738 20.2766 7.7621C20.2514 7.72681 20.2261 7.69506 20.2009 7.66683C20.1694 7.63861 20.1441 7.61038 20.1252 7.58216C20.1 7.55393 20.0873 7.52218 20.0873 7.4869C20.0873 7.40222 20.1126 7.33518 20.163 7.28579C20.2135 7.23639 20.2703 7.19405 20.3334 7.15877C20.3965 7.11643 20.4564 7.07409 20.5132 7.03175C20.5763 6.98942 20.6173 6.92944 20.6362 6.85181C20.6867 6.86593 20.7371 6.87651 20.7876 6.88357C20.8381 6.88357 20.8886 6.89768 20.939 6.92591C20.9453 6.91885 20.9485 6.90827 20.9485 6.89415C20.9485 6.87298 20.917 6.85534 20.8539 6.84123C20.7971 6.82006 20.7592 6.79536 20.7403 6.76714C20.7908 6.75302 20.8286 6.74597 20.8539 6.74597C20.98 6.74597 21.0999 6.78125 21.2135 6.85181C21.3333 6.92238 21.4469 6.99647 21.5541 7.07409C21.5668 7.1376 21.5699 7.20464 21.5636 7.2752C21.5573 7.33871 21.5762 7.39869 21.6204 7.45514C21.6141 7.49042 21.6109 7.52218 21.6109 7.5504C21.6172 7.57863 21.6204 7.60685 21.6204 7.63508C21.6204 7.67036 21.6141 7.70212 21.6015 7.73034C21.5951 7.75151 21.5794 7.7621 21.5541 7.7621C21.5983 7.84677 21.6267 7.94909 21.6393 8.06905C21.6582 8.18901 21.674 8.3125 21.6866 8.43952C21.7056 8.56653 21.7276 8.69002 21.7529 8.80998C21.7781 8.92994 21.8254 9.03579 21.8948 9.12752C21.8822 9.16986 21.8727 9.2122 21.8664 9.25454C21.8664 9.29688 21.8664 9.34274 21.8664 9.39214C21.8664 9.61794 21.8917 9.84022 21.9421 10.059C21.9926 10.2777 22.0178 10.5 22.0178 10.7258C22.0178 10.8599 21.9989 10.9834 21.9611 11.0963C21.9611 11.1598 21.98 11.2127 22.0178 11.255C22.0557 11.2903 22.0809 11.3397 22.0935 11.4032C22.062 11.4879 22.0462 11.5691 22.0462 11.6467C22.0462 11.809 22.0746 11.9642 22.1314 12.1124C22.1882 12.2535 22.2166 12.4017 22.2166 12.557C22.2166 12.6064 22.2103 12.6522 22.1976 12.6946C22.185 12.7369 22.1724 12.7757 22.1598 12.811C22.2166 12.8745 22.245 12.9556 22.245 13.0544C22.2513 13.1532 22.2797 13.2344 22.3301 13.2979C22.3238 13.3332 22.3175 13.3684 22.3112 13.4037C22.3112 13.439 22.2954 13.4672 22.2639 13.4884C22.2954 13.5378 22.3112 13.6048 22.3112 13.6895C22.3175 13.7671 22.3459 13.813 22.3964 13.8271C22.3838 13.8624 22.3743 13.8942 22.368 13.9224C22.3617 13.9506 22.3585 13.9824 22.3585 14.0176C22.3585 14.0953 22.368 14.1658 22.3869 14.2293L22.4437 14.4199C22.4626 14.4834 22.4752 14.5504 22.4815 14.621C22.4942 14.6915 22.4878 14.7692 22.4626 14.8538C22.4878 14.8962 22.5068 14.9456 22.5194 15.002C22.5383 15.0585 22.5541 15.1184 22.5667 15.182C22.5793 15.2384 22.5983 15.2913 22.6235 15.3407C22.6487 15.3831 22.6866 15.4113 22.737 15.4254C22.7434 15.4677 22.7276 15.4889 22.6897 15.4889C22.6582 15.4889 22.6424 15.5066 22.6424 15.5418C22.6424 15.5983 22.6613 15.6688 22.6992 15.7535C22.737 15.8311 22.7717 15.8876 22.8033 15.9229C22.797 15.9511 22.7938 15.9793 22.7938 16.0076V16.1028C22.7938 16.2016 22.8064 16.3039 22.8317 16.4098C22.8569 16.5086 22.879 16.6074 22.8979 16.7061C22.9232 16.812 22.9421 16.9143 22.9547 17.0131C22.9673 17.1119 22.961 17.2036 22.9358 17.2883C22.9862 17.3871 23.0304 17.4929 23.0683 17.6058C23.1061 17.7188 23.166 17.814 23.2481 17.8916C23.2481 18.0116 23.2701 18.1245 23.3143 18.2303C23.3585 18.3432 23.4152 18.4491 23.4846 18.5479C23.5477 18.5479 23.595 18.5232 23.6266 18.4738C23.6581 18.4315 23.6834 18.3821 23.7023 18.3256C23.7212 18.2692 23.7433 18.2162 23.7685 18.1668C23.7938 18.1174 23.8348 18.0892 23.8916 18.0822C23.8979 18.0116 23.9136 17.9516 23.9389 17.9022C23.9704 17.8599 23.9988 17.814 24.024 17.7646C24.0556 17.7152 24.0808 17.6623 24.0998 17.6058C24.125 17.5494 24.1344 17.4788 24.1281 17.3942L24.2322 17.3624C24.2638 17.1719 24.3111 16.999 24.3742 16.8438C24.4436 16.6956 24.5193 16.5403 24.6013 16.378V16.3251C24.6013 16.2545 24.6108 16.1946 24.6297 16.1452C24.6486 16.0958 24.6518 16.0323 24.6392 15.9546C24.6833 15.9405 24.7149 15.9123 24.7338 15.87C24.7527 15.8276 24.7685 15.7853 24.7811 15.7429C24.7937 15.6935 24.8063 15.6477 24.819 15.6053C24.8379 15.5559 24.8663 15.5207 24.9041 15.4995V15.4148C24.8978 15.3513 24.901 15.2913 24.9136 15.2349C24.9325 15.1714 24.9294 15.1079 24.9041 15.0444C24.9546 15.0232 24.9924 14.9879 25.0177 14.9385C25.0429 14.8891 25.0618 14.8362 25.0745 14.7797C25.0934 14.7233 25.1029 14.6633 25.1029 14.5998C25.1092 14.5363 25.1123 14.4798 25.1123 14.4304C25.1565 14.3669 25.188 14.2928 25.2069 14.2082C25.2259 14.1164 25.2416 14.0247 25.2543 13.933C25.2669 13.8412 25.2827 13.753 25.3016 13.6683C25.3268 13.5837 25.3647 13.5096 25.4151 13.4461C25.4025 13.4108 25.3962 13.379 25.3962 13.3508V13.2555C25.3962 13.1215 25.4151 13.0015 25.453 12.8957C25.4908 12.7828 25.5255 12.6628 25.5571 12.5358C25.6391 12.2182 25.6959 11.8936 25.7274 11.562C25.7653 11.2233 25.8189 10.8916 25.8883 10.567C25.8946 10.5318 25.9072 10.4753 25.9262 10.3977C25.9451 10.3201 25.964 10.2424 25.9829 10.1648C26.0019 10.0801 26.0176 10.006 26.0303 9.94254C26.0492 9.87198 26.0586 9.82611 26.0586 9.80494C26.0586 9.74849 26.046 9.70968 26.0208 9.68851C26.0019 9.66734 25.9924 9.63206 25.9924 9.58266C26.0303 9.51915 26.0555 9.438 26.0681 9.33921C26.0807 9.24042 26.0902 9.1381 26.0965 9.03226C26.1028 8.91935 26.1028 8.81351 26.0965 8.71472C26.0965 8.60887 26.0965 8.51714 26.0965 8.43952C26.0965 8.3619 26.1123 8.2631 26.1438 8.14315C26.1754 8.02319 26.1974 7.91734 26.2101 7.8256C26.2416 7.58569 26.2605 7.34929 26.2668 7.11643C26.2794 6.87651 26.2921 6.63659 26.3047 6.39667C26.3488 6.36845 26.3804 6.33317 26.3993 6.29083C26.4182 6.24143 26.4277 6.19204 26.4277 6.14264C26.4277 6.06502 26.4182 5.99093 26.3993 5.92036C26.3867 5.8498 26.3804 5.77571 26.3804 5.69808C26.3804 5.6628 26.3835 5.62752 26.3899 5.59224C26.3962 5.5499 26.4119 5.51462 26.4372 5.48639C26.4309 5.437 26.4246 5.3876 26.4182 5.33821C26.4182 5.28881 26.4025 5.24647 26.3709 5.21119C26.4025 5.11946 26.4182 5.02772 26.4182 4.93599C26.4182 4.85131 26.4088 4.76663 26.3899 4.68196C26.3772 4.59728 26.3709 4.50907 26.3709 4.41734C26.3709 4.24093 26.4372 4.11391 26.5697 4.03629H26.7021C26.7652 4.03629 26.8283 4.03276 26.8914 4.02571C26.9545 4.01865 27.0207 3.99748 27.0901 3.9622C27.1721 4.06099 27.2573 4.17036 27.3456 4.29032C27.434 4.40323 27.5097 4.52671 27.5728 4.66079C27.6358 4.79486 27.6832 4.93246 27.7147 5.07359C27.7463 5.21472 27.7494 5.3629 27.7242 5.51815C27.7494 5.5746 27.7652 5.63105 27.7715 5.6875C27.7778 5.74395 27.7967 5.8004 27.8283 5.85685ZM25.8978 11.6255C25.8725 11.6184 25.8536 11.6079 25.841 11.5938C25.8347 11.5726 25.8158 11.5585 25.7842 11.5514V11.6678H25.8599L25.8978 11.6255Z" fill="url(#paint0_linear_55_16)"/>
<path d="M33.8469 10.3553C33.809 10.4189 33.7869 10.4894 33.7806 10.567C33.7743 10.6447 33.7712 10.7152 33.7712 10.7787C33.7712 10.8634 33.7712 10.9481 33.7712 11.0328C33.7775 11.1104 33.7806 11.188 33.7806 11.2656V11.4244C33.768 11.4738 33.7491 11.5232 33.7239 11.5726C33.6986 11.622 33.6797 11.6714 33.6671 11.7208C33.5788 11.9819 33.5346 12.2429 33.5346 12.504V12.5252C33.5031 12.6099 33.4715 12.6875 33.44 12.7581C33.4147 12.8286 33.3895 12.8992 33.3643 12.9698C33.339 13.0333 33.3201 13.1038 33.3075 13.1815C33.2949 13.252 33.2917 13.3367 33.298 13.4355C33.2097 13.6825 33.093 13.9083 32.9479 14.1129C32.8028 14.3105 32.6608 14.5151 32.522 14.7268C32.3895 14.7833 32.2665 14.8574 32.153 14.9491C32.0457 15.0408 31.9416 15.1431 31.8407 15.256C31.6451 15.3266 31.4527 15.4078 31.2634 15.4995C31.0742 15.5912 30.9038 15.7147 30.7524 15.87C30.6325 15.8841 30.5127 15.9052 30.3928 15.9335C30.2729 15.9617 30.1562 16.004 30.0427 16.0605H29.9291C29.8723 16.0605 29.8313 16.0464 29.8061 16.0181C29.7241 16.0675 29.6389 16.1028 29.5506 16.124C29.4622 16.1381 29.3739 16.1452 29.2856 16.1452C29.172 16.1452 29.0585 16.1381 28.9449 16.124C28.8377 16.1028 28.7273 16.0817 28.6137 16.0605C28.5506 15.9617 28.4623 15.8876 28.3487 15.8382C28.2352 15.7818 28.1342 15.7288 28.0459 15.6794C27.863 15.3972 27.7305 15.1255 27.6485 14.8644C27.5664 14.5963 27.4813 14.2964 27.393 13.9647C27.4056 13.8659 27.4277 13.7707 27.4592 13.6789C27.4907 13.5801 27.5034 13.4743 27.4971 13.3614C27.6106 12.9945 27.7589 12.6628 27.9418 12.3664C28.1311 12.063 28.3456 11.7737 28.5853 11.4985C28.5853 11.4561 28.5916 11.4209 28.6042 11.3926C28.6232 11.3644 28.6263 11.3221 28.6137 11.2656C28.62 11.2727 28.6326 11.2762 28.6516 11.2762C28.702 11.2762 28.7336 11.2621 28.7462 11.2339C28.7588 11.1986 28.762 11.1598 28.7557 11.1174C28.9828 10.9551 29.1878 10.7681 29.3708 10.5565C29.56 10.3448 29.7745 10.1683 30.0143 10.0272C30.0332 9.96371 30.0647 9.91079 30.1089 9.86845C30.1531 9.82611 30.1878 9.77671 30.213 9.72026C30.4149 9.65675 30.5978 9.56149 30.7619 9.43448C30.9259 9.30746 31.0994 9.19456 31.2823 9.09577C31.3833 9.03226 31.4779 8.98992 31.5662 8.96875C31.6609 8.94052 31.7618 8.9123 31.8691 8.88407C31.9069 8.86996 31.9416 8.85938 31.9732 8.85232C32.0047 8.84526 32.0394 8.84173 32.0773 8.84173C32.1908 8.84173 32.3012 8.86643 32.4085 8.91583C32.5157 8.95817 32.6261 8.97933 32.7397 8.97933C32.7712 8.97933 32.7965 8.97933 32.8154 8.97933C32.8406 8.97228 32.8659 8.96522 32.8911 8.95817C32.9983 9.10635 33.134 9.21925 33.298 9.29688C33.3359 9.40272 33.38 9.49446 33.4305 9.57208C33.4873 9.6497 33.5441 9.72732 33.6008 9.80494C33.6576 9.8755 33.7081 9.95665 33.7522 10.0484C33.8027 10.1331 33.8343 10.2354 33.8469 10.3553ZM32.9006 10.9057C32.9006 10.8705 32.8974 10.8387 32.8911 10.8105C32.828 10.7893 32.7681 10.7611 32.7113 10.7258C32.6545 10.6905 32.5914 10.6729 32.522 10.6729C32.4779 10.6729 32.4337 10.6835 32.3895 10.7046C32.3832 10.6552 32.3643 10.62 32.3328 10.5988C32.3075 10.5776 32.276 10.56 32.2381 10.5459C32.2066 10.5247 32.1719 10.5106 32.134 10.5035C32.1025 10.4894 32.0741 10.4682 32.0489 10.44C32.0299 10.3836 32.0079 10.3271 31.9826 10.2707C31.9637 10.2072 31.9258 10.1613 31.8691 10.1331C31.8123 10.1966 31.746 10.2495 31.6703 10.2918C31.5946 10.3271 31.5158 10.3624 31.4338 10.3977C31.3581 10.433 31.2823 10.4753 31.2066 10.5247C31.1372 10.5741 31.0773 10.6341 31.0268 10.7046H30.8565C30.8186 10.7823 30.765 10.8422 30.6956 10.8846C30.6262 10.9199 30.5663 10.9728 30.5158 11.0433C30.4149 11.0998 30.3202 11.1704 30.2319 11.255C30.1499 11.3327 30.0679 11.4173 29.9859 11.5091C29.9039 11.5938 29.8219 11.682 29.7398 11.7737C29.6641 11.8654 29.5821 11.9501 29.4938 12.0277C29.4118 12.2253 29.3203 12.3982 29.2194 12.5464C29.1247 12.6875 29.0332 12.8322 28.9449 12.9803C28.8629 13.1285 28.7904 13.2908 28.7273 13.4672C28.6705 13.6366 28.6421 13.8483 28.6421 14.1023V14.2082C28.6421 14.2434 28.6453 14.2787 28.6516 14.314C28.7336 14.4128 28.7998 14.5186 28.8503 14.6316C28.9071 14.7445 28.9986 14.8256 29.1247 14.875C29.2509 14.9315 29.3834 14.9561 29.5222 14.9491C29.6673 14.942 29.8061 14.9597 29.9386 15.002C30.2414 14.9385 30.5316 14.8362 30.8092 14.6951C31.0931 14.5469 31.3612 14.3705 31.6136 14.1658C31.6514 14.1305 31.6956 14.0953 31.746 14.06C31.7965 14.0176 31.8375 13.9753 31.8691 13.933C31.9006 13.8977 31.9258 13.8589 31.9448 13.8165C31.97 13.7742 31.9952 13.7354 32.0205 13.7001C32.0709 13.6084 32.1277 13.5166 32.1908 13.4249C32.2539 13.3332 32.3201 13.2485 32.3895 13.1709C32.4211 13.0156 32.4621 12.8674 32.5126 12.7263C32.563 12.5781 32.6135 12.4335 32.664 12.2923C32.7144 12.1512 32.7555 12.0066 32.787 11.8584C32.8249 11.7102 32.8438 11.5549 32.8438 11.3926C32.8438 11.3574 32.8406 11.3185 32.8343 11.2762C32.8343 11.2339 32.8312 11.1951 32.8249 11.1598C32.8753 11.0822 32.9006 10.9975 32.9006 10.9057Z" fill="url(#paint1_linear_55_16)"/>
<path d="M42.6477 9.67792C42.6225 9.76966 42.5814 9.85433 42.5247 9.93196L42.3638 10.1542C42.3133 10.2248 42.2692 10.3024 42.2313 10.3871C42.1998 10.4647 42.1903 10.5565 42.2029 10.6623C42.1903 10.6623 42.1745 10.6623 42.1556 10.6623C42.1367 10.6552 42.1209 10.6517 42.1083 10.6517C42.0073 10.6517 41.9285 10.6799 41.8717 10.7364C41.8212 10.7858 41.7518 10.8281 41.6635 10.8634C41.6509 10.8211 41.6351 10.7823 41.6162 10.747C41.5973 10.7046 41.5689 10.6764 41.531 10.6623C41.3796 10.6976 41.2282 10.7258 41.0768 10.747C40.9254 10.7611 40.774 10.7823 40.6226 10.8105C40.5532 10.8246 40.4838 10.8458 40.4144 10.874C40.345 10.8952 40.2724 10.9163 40.1967 10.9375C40.1589 10.9516 40.1179 10.9587 40.0737 10.9587C40.0295 10.9516 39.9854 10.9516 39.9412 10.9587C39.7898 10.9657 39.6258 10.9798 39.4491 11.001C39.2725 11.0151 39.1147 11.068 38.976 11.1598C38.9129 11.1457 38.8466 11.1351 38.7772 11.128C38.7078 11.121 38.6384 11.1174 38.569 11.1174C38.4176 11.1174 38.2504 11.1351 38.0675 11.1704C37.8908 11.1986 37.7331 11.2586 37.5943 11.3503C37.5628 11.3362 37.5281 11.3256 37.4902 11.3185C37.4587 11.3115 37.4208 11.308 37.3767 11.308C37.364 11.308 37.3546 11.3115 37.3483 11.3185C37.342 11.3185 37.3325 11.3185 37.3199 11.3185C37.3136 11.3821 37.3199 11.4456 37.3388 11.5091C37.364 11.5655 37.4051 11.6114 37.4618 11.6467C37.4366 11.7243 37.424 11.809 37.424 11.9007C37.424 12.0207 37.4303 12.1406 37.4429 12.2606C37.4618 12.3805 37.4713 12.5005 37.4713 12.6205C37.4713 12.7545 37.4555 12.8604 37.424 12.938C37.4871 13.1497 37.5186 13.3755 37.5186 13.6154C37.5186 13.7001 37.5123 13.7848 37.4997 13.8695C37.4934 13.9471 37.4902 14.0318 37.4902 14.1235C37.4902 14.2011 37.5155 14.2646 37.5659 14.314C37.6164 14.3563 37.6416 14.4163 37.6416 14.494C37.6416 14.5222 37.6353 14.5504 37.6227 14.5786C37.711 14.5575 37.7962 14.5292 37.8782 14.494C37.9602 14.4516 38.0454 14.4304 38.1337 14.4304C38.1842 14.4304 38.2315 14.441 38.2757 14.4622C38.3261 14.4834 38.3703 14.5116 38.4082 14.5469C38.4019 14.5822 38.3955 14.621 38.3892 14.6633C38.3892 14.7056 38.3892 14.748 38.3892 14.7903C38.3892 14.8679 38.3892 14.942 38.3892 15.0126C38.3955 15.0761 38.4019 15.1467 38.4082 15.2243C38.3577 15.3231 38.2978 15.4113 38.2284 15.4889C38.1653 15.5665 38.1211 15.6653 38.0959 15.7853C38.0012 15.7853 37.9161 15.81 37.8404 15.8594C37.771 15.9017 37.7047 15.9511 37.6416 16.0076C37.5785 16.057 37.5155 16.1063 37.4524 16.1557C37.3893 16.1981 37.3199 16.2193 37.2442 16.2193C37.1495 16.2193 37.0833 16.2051 37.0455 16.1769C37.0076 16.1416 36.9792 16.1063 36.9603 16.0711C36.9414 16.0358 36.9224 16.004 36.9035 15.9758C36.8909 15.9476 36.8593 15.937 36.8089 15.9441C36.7963 15.8523 36.771 15.7676 36.7332 15.69C36.6953 15.6053 36.6543 15.5242 36.6101 15.4466C36.5723 15.369 36.5313 15.2913 36.4871 15.2137C36.4493 15.129 36.4209 15.0444 36.402 14.9597C36.3641 14.7762 36.3483 14.5857 36.3546 14.3881C36.3609 14.1905 36.3326 14 36.2695 13.8165C36.2821 13.7177 36.2915 13.619 36.2979 13.5202C36.3042 13.4143 36.3073 13.312 36.3073 13.2132C36.3073 13.0156 36.301 12.8216 36.2884 12.631C36.2821 12.4335 36.2758 12.2324 36.2695 12.0277C36.2253 11.9642 36.1969 11.8936 36.1843 11.816C36.178 11.7314 36.1717 11.6502 36.1654 11.5726C36.1464 11.5514 36.1244 11.5302 36.0991 11.5091C36.0802 11.4879 36.0676 11.4597 36.0613 11.4244C36.0108 11.4103 35.973 11.4032 35.9477 11.4032C35.8594 11.4032 35.7837 11.4279 35.7206 11.4773C35.6638 11.5197 35.6102 11.5408 35.5597 11.5408C35.5093 11.5408 35.4619 11.5338 35.4178 11.5197C35.3736 11.5055 35.3295 11.4985 35.2853 11.4985C35.2474 11.4985 35.2254 11.5091 35.2191 11.5302C35.2191 11.5444 35.2064 11.5585 35.1812 11.5726C35.1623 11.5867 35.1181 11.6008 35.0487 11.6149C34.9793 11.629 34.9005 11.6431 34.8121 11.6573C34.7301 11.6643 34.6481 11.6714 34.5661 11.6784C34.4904 11.6855 34.4399 11.689 34.4147 11.689C34.3137 11.689 34.238 11.6678 34.1876 11.6255C34.1308 11.5761 34.0645 11.5232 33.9888 11.4667C34.0014 11.4244 34.0078 11.3962 34.0078 11.3821C34.0078 11.3115 33.9888 11.255 33.951 11.2127C33.9131 11.1633 33.8942 11.121 33.8942 11.0857C33.8942 11.0081 33.9226 10.9481 33.9794 10.9057C34.0298 10.8634 34.0582 10.7964 34.0645 10.7046C34.2096 10.6341 34.3579 10.5811 34.5093 10.5459C34.6607 10.5106 34.8153 10.4824 34.973 10.4612C35.1307 10.44 35.2853 10.4153 35.4367 10.3871C35.5944 10.3589 35.749 10.313 35.9004 10.2495C35.9446 10.2566 35.9856 10.2636 36.0234 10.2707C36.0676 10.2707 36.1117 10.2707 36.1559 10.2707C36.3452 10.2707 36.5313 10.2495 36.7142 10.2072C36.9035 10.1578 37.0959 10.1331 37.2915 10.1331C37.342 10.1331 37.3924 10.1366 37.4429 10.1436C37.4934 10.1507 37.5438 10.1613 37.5943 10.1754C37.8467 10.1331 38.0959 10.0872 38.3419 10.0378C38.5943 9.98841 38.8529 9.94607 39.1179 9.91079C39.2441 9.89667 39.3671 9.88609 39.487 9.87903C39.6131 9.86492 39.7393 9.84728 39.8655 9.82611C39.9097 9.81905 39.9412 9.80847 39.9601 9.79435C39.9854 9.77318 39.998 9.73438 39.998 9.67792C40.0548 9.70615 40.1179 9.72026 40.1872 9.72026C40.2945 9.72026 40.3986 9.69909 40.4995 9.65675C40.6005 9.61442 40.7046 9.59325 40.8118 9.59325C40.8371 9.59325 40.8591 9.59677 40.8781 9.60383C40.897 9.60383 40.9159 9.60383 40.9348 9.60383C40.979 9.60383 41.0011 9.58266 41.0011 9.54032C41.0074 9.49093 41.0389 9.45917 41.0957 9.44506C41.1399 9.43095 41.203 9.42036 41.285 9.41331C41.367 9.40625 41.4522 9.39919 41.5405 9.39214C41.6351 9.37802 41.7203 9.36391 41.796 9.3498C41.878 9.32863 41.9379 9.3004 41.9758 9.26512L42.042 9.14869C42.1556 9.15575 42.2376 9.2122 42.2881 9.31804C42.3449 9.41683 42.3764 9.52621 42.3827 9.64617C42.408 9.67439 42.4426 9.68851 42.4868 9.68851C42.5373 9.68145 42.5814 9.67792 42.6193 9.67792H42.6477Z" fill="url(#paint2_linear_55_16)"/>
<path d="M50.4359 6.39667C50.3855 6.43196 50.3318 6.45312 50.2751 6.46018C50.2183 6.46724 50.1583 6.47782 50.0953 6.49194C50.0385 6.49899 49.9848 6.5131 49.9344 6.53427C49.8839 6.55544 49.8461 6.59425 49.8208 6.65071C49.7577 6.58014 49.6883 6.52016 49.6126 6.47077C49.5369 6.42137 49.4612 6.36845 49.3855 6.312C49.3224 6.33317 49.2593 6.36139 49.1962 6.39667C49.1332 6.43196 49.0701 6.4496 49.007 6.4496C48.9628 6.4496 48.9187 6.43196 48.8745 6.39667C48.824 6.43901 48.7641 6.47429 48.6947 6.50252C48.6316 6.52369 48.5622 6.54486 48.4865 6.56603C48.4171 6.5872 48.3509 6.61542 48.2878 6.65071C48.231 6.68599 48.19 6.73891 48.1648 6.80948C48.1521 6.77419 48.1206 6.76361 48.0701 6.77772C48.026 6.79183 48.0007 6.77419 47.9944 6.7248C47.7925 6.80242 47.5875 6.86946 47.3793 6.92591C47.1711 6.98236 46.9629 7.04234 46.7547 7.10585C46.5465 7.16935 46.3415 7.23992 46.1396 7.31754C45.9377 7.39516 45.7422 7.49042 45.5529 7.60333C45.5466 7.61038 45.5434 7.62097 45.5434 7.63508C45.5434 7.70565 45.5529 7.77268 45.5718 7.83619C45.5908 7.8997 45.6065 7.95968 45.6191 8.01613C45.5056 8.44657 45.4299 8.88407 45.392 9.32863C45.3542 9.77318 45.3037 10.2107 45.2406 10.6411V10.6835C45.2406 10.7188 45.2532 10.747 45.2785 10.7681C45.3037 10.7823 45.3163 10.8105 45.3163 10.8528L45.3069 10.874C45.2753 10.8952 45.2532 10.9269 45.2406 10.9693C45.228 11.0045 45.2217 11.0433 45.2217 11.0857C45.2217 11.1139 45.228 11.1562 45.2406 11.2127C45.1334 11.6149 45.0608 12.0242 45.023 12.4405C44.9914 12.8569 44.9504 13.2732 44.8999 13.6895L44.8148 14.3881C44.8022 14.4304 44.7895 14.4728 44.7769 14.5151C44.7706 14.5504 44.7675 14.5892 44.7675 14.6316C44.7675 14.8574 44.7801 15.0796 44.8053 15.2984C44.8368 15.5101 44.8463 15.7288 44.8337 15.9546C44.8905 16.0534 44.9189 16.1487 44.9189 16.2404C44.9189 16.2757 44.9157 16.311 44.9094 16.3463C44.9094 16.3816 44.9062 16.4168 44.8999 16.4521C44.982 16.5438 45.0766 16.6074 45.1838 16.6426C45.2974 16.685 45.3983 16.7485 45.4867 16.8332V16.8755C45.4867 16.9461 45.4772 17.0131 45.4583 17.0766C45.4393 17.1472 45.4236 17.2177 45.4109 17.2883C45.3983 17.3448 45.3826 17.4259 45.3636 17.5318C45.351 17.6376 45.3321 17.7082 45.3069 17.7434C45.2753 17.7928 45.228 17.8352 45.1649 17.8705C45.1081 17.9128 45.0513 17.934 44.9946 17.934C44.9756 17.934 44.9473 17.9234 44.9094 17.9022C44.8779 17.881 44.8526 17.8634 44.8337 17.8493C44.8022 17.8493 44.7611 17.8669 44.7107 17.9022C44.6602 17.9375 44.6097 17.9551 44.5593 17.9551C44.534 17.9551 44.5119 17.9516 44.493 17.9446C44.4741 17.9446 44.452 17.9375 44.4268 17.9234C44.4015 17.8528 44.3637 17.7893 44.3132 17.7329C44.2691 17.6835 44.2154 17.6341 44.1523 17.5847C44.1586 17.4859 44.1429 17.4118 44.105 17.3624C44.0672 17.313 44.0293 17.2495 43.9915 17.1719C43.9788 17.0731 43.9662 16.9602 43.9536 16.8332C43.9473 16.7061 43.9 16.6144 43.8117 16.558C43.8432 16.5086 43.859 16.4415 43.859 16.3569C43.859 16.3216 43.8527 16.2828 43.8401 16.2404C43.8337 16.1981 43.8148 16.1663 43.7833 16.1452V16.124C43.777 16.0887 43.7864 16.064 43.8117 16.0499C43.8432 16.0287 43.859 16.0005 43.859 15.9652V15.9229C43.8148 15.6971 43.7927 15.4607 43.7927 15.2137C43.7927 14.9808 43.799 14.7515 43.8117 14.5257C43.8243 14.2928 43.8243 14.06 43.8117 13.8271C43.8495 13.7918 43.8779 13.7354 43.8968 13.6578C43.9221 13.5801 43.941 13.4955 43.9536 13.4037C43.9662 13.312 43.9725 13.2238 43.9725 13.1391C43.9788 13.0474 43.9852 12.9733 43.9915 12.9168C44.023 12.5146 44.0735 12.1195 44.1429 11.7314C44.2123 11.3362 44.2533 10.934 44.2659 10.5247C44.2974 10.4682 44.3164 10.3942 44.3227 10.3024C44.329 10.2107 44.3321 10.1154 44.3321 10.0166C44.3321 9.91079 44.3385 9.80847 44.3511 9.70968C44.3637 9.61089 44.3889 9.52621 44.4268 9.45564C44.4268 9.25806 44.4425 9.06048 44.4741 8.8629C44.5056 8.65827 44.5214 8.45363 44.5214 8.24899C44.5214 8.1502 44.5119 8.04788 44.493 7.94204C44.4299 7.91381 44.3731 7.8997 44.3227 7.8997C44.2533 7.8997 44.1807 7.91734 44.105 7.95262C44.0356 7.98085 43.9852 8.02671 43.9536 8.09022C43.8148 8.09728 43.6792 8.12198 43.5467 8.16431C43.4142 8.20665 43.2817 8.22782 43.1492 8.22782H43.0546C43.0294 8.22782 43.001 8.22429 42.9694 8.21724C42.9253 8.23841 42.878 8.25605 42.8275 8.27016C42.7833 8.28427 42.7644 8.32661 42.7707 8.39718C42.5751 8.41835 42.3827 8.46421 42.1935 8.53478C42.0105 8.60534 41.8275 8.68296 41.6446 8.76764C41.4616 8.84526 41.2787 8.91935 41.0957 8.98992C40.9065 9.06048 40.714 9.10635 40.5185 9.12752C40.4491 9.1628 40.4049 9.23689 40.386 9.3498C40.2472 9.33568 40.1305 9.29688 40.0358 9.23337C39.9412 9.16986 39.8308 9.10988 39.7046 9.05343C39.6668 8.90524 39.6478 8.76411 39.6478 8.63004C39.6478 8.45363 39.6794 8.28427 39.7425 8.12198C39.8056 7.95968 39.9065 7.83972 40.0453 7.7621C40.0768 7.76915 40.1052 7.77621 40.1305 7.78327C40.1557 7.78327 40.1841 7.78327 40.2156 7.78327C40.3166 7.78327 40.4175 7.7621 40.5185 7.71976C40.6194 7.67742 40.7235 7.65625 40.8307 7.65625C40.8623 7.65625 40.897 7.66683 40.9348 7.688C40.979 7.65978 41.0358 7.63861 41.1052 7.6245C41.1683 7.60333 41.2282 7.58569 41.285 7.57157C41.3481 7.5504 41.4049 7.52218 41.4553 7.4869C41.5058 7.45161 41.5373 7.40222 41.55 7.33871C41.5815 7.36694 41.6162 7.38458 41.654 7.39163C41.6919 7.39869 41.7298 7.40222 41.7676 7.40222C41.8496 7.40222 41.9348 7.38458 42.0231 7.34929C42.1114 7.31401 42.1808 7.25756 42.2313 7.17994C42.2755 7.23639 42.3386 7.26462 42.4206 7.26462C42.5089 7.26462 42.5941 7.23992 42.6761 7.19052C42.7644 7.13407 42.8496 7.10585 42.9316 7.10585C42.9947 7.10585 43.042 7.13054 43.0735 7.17994C43.1429 7.11643 43.2249 7.06704 43.3196 7.03175C43.4142 6.99647 43.5088 6.96472 43.6035 6.93649C43.7044 6.90827 43.7959 6.87651 43.8779 6.84123C43.9662 6.80595 44.0356 6.75655 44.0861 6.69304C44.1176 6.7001 44.1681 6.70363 44.2375 6.70363C44.3448 6.70363 44.4457 6.68952 44.5403 6.66129C44.6413 6.62601 44.7422 6.59425 44.8432 6.56603L45.0419 6.54486C45.0924 6.5378 45.1365 6.52016 45.1744 6.49194C45.2185 6.46371 45.2627 6.43901 45.3069 6.41784C45.351 6.39667 45.3952 6.37903 45.4393 6.36492C45.4898 6.35081 45.5497 6.34728 45.6191 6.35433C45.7706 6.2626 45.9314 6.19204 46.1018 6.14264C46.2721 6.09325 46.4456 6.05091 46.6222 6.01562C46.7989 5.97329 46.9724 5.92742 47.1427 5.87802C47.3131 5.82157 47.4739 5.74042 47.6253 5.63458H47.6537C47.7799 5.63458 47.9029 5.60988 48.0228 5.56048C48.149 5.51109 48.2657 5.44405 48.3729 5.35938C48.3919 5.36643 48.4108 5.36996 48.4297 5.36996H48.496C48.6726 5.36996 48.8429 5.34173 49.007 5.28528C49.1773 5.22883 49.354 5.2006 49.5369 5.2006C49.6442 5.2006 49.7293 5.21825 49.7924 5.25353C49.8555 5.28175 49.9123 5.32056 49.9628 5.36996C50.0132 5.4123 50.0669 5.45464 50.1236 5.49698C50.1804 5.53931 50.253 5.57107 50.3413 5.59224C50.3981 5.7122 50.4265 5.84274 50.4265 5.98387C50.4265 6.11794 50.4296 6.25554 50.4359 6.39667Z" fill="url(#paint3_linear_55_16)"/>
<path d="M54.5903 15.7112C54.5714 15.81 54.5304 15.8911 54.4673 15.9546C54.4105 16.0111 54.3411 16.057 54.2591 16.0922C54.1771 16.1275 54.0919 16.1522 54.0036 16.1663C53.9216 16.1734 53.8458 16.1769 53.7764 16.1769C53.7449 16.1769 53.7134 16.1769 53.6818 16.1769C53.6566 16.1699 53.6282 16.1663 53.5966 16.1663C53.5651 16.1663 53.5493 16.184 53.5493 16.2193C53.5493 16.2545 53.5336 16.2792 53.502 16.2933C53.4705 16.2792 53.4389 16.2686 53.4074 16.2616C53.3758 16.2545 53.3443 16.251 53.3128 16.251C53.2686 16.251 53.2244 16.2545 53.1803 16.2616C53.1424 16.2686 53.1046 16.2722 53.0667 16.2722C53.0162 16.2722 52.9784 16.2651 52.9531 16.251C52.9342 16.2369 52.9153 16.2228 52.8964 16.2087C52.8838 16.1875 52.868 16.1663 52.8491 16.1452C52.8364 16.124 52.8144 16.1063 52.7828 16.0922C52.7386 16.0711 52.7008 16.0675 52.6693 16.0817C52.644 16.0958 52.603 16.0746 52.5462 16.0181C52.4705 15.9476 52.4043 15.8629 52.3475 15.7641C52.297 15.6583 52.2466 15.5489 52.1961 15.436C52.1456 15.3231 52.092 15.2102 52.0352 15.0973C51.9784 14.9844 51.9122 14.8856 51.8365 14.8009H51.7608C51.6472 14.8009 51.5684 14.8538 51.5242 14.9597C51.4927 14.9385 51.4611 14.9138 51.4296 14.8856C51.398 14.8503 51.3633 14.8221 51.3255 14.8009C51.1804 14.8503 51.029 14.8926 50.8712 14.9279C50.7135 14.9632 50.5558 14.9808 50.3981 14.9808H50.2656C50.2277 14.9808 50.1867 14.9738 50.1426 14.9597C50.0795 14.9879 50.0227 15.0232 49.9722 15.0655C49.9218 15.1008 49.865 15.1184 49.8019 15.1184C49.764 15.1184 49.7199 15.1043 49.6694 15.0761C49.6316 15.0761 49.6126 15.0938 49.6126 15.129C49.6189 15.1643 49.6 15.182 49.5558 15.182H49.4707C49.3824 15.182 49.294 15.1855 49.2057 15.1925C49.1237 15.1996 49.0385 15.2031 48.9502 15.2031C48.8303 15.2031 48.7073 15.1855 48.5811 15.1502C48.5496 15.1714 48.5149 15.182 48.477 15.182C48.4518 15.1961 48.4329 15.2208 48.4203 15.256C48.4076 15.2843 48.395 15.3125 48.3824 15.3407C48.3698 15.3619 48.3509 15.3831 48.3256 15.4042C48.3067 15.4183 48.2783 15.4219 48.2405 15.4148C48.2278 15.4995 48.1963 15.5665 48.1458 15.6159C48.0954 15.6653 48.0701 15.7394 48.0701 15.8382C48.0007 15.8805 47.9439 15.9335 47.8998 15.997C47.8556 16.0605 47.8115 16.1275 47.7673 16.1981C47.7231 16.2686 47.6758 16.3357 47.6253 16.3992C47.5812 16.4627 47.5244 16.5121 47.455 16.5474C47.4235 16.5897 47.414 16.6568 47.4266 16.7485C47.3572 16.812 47.2721 16.8684 47.1711 16.9178C47.0702 16.9672 46.9755 16.9919 46.8872 16.9919C46.7043 16.9919 46.5781 16.8826 46.5087 16.6638C46.5087 16.5932 46.515 16.5192 46.5276 16.4415C46.5339 16.3569 46.5465 16.2792 46.5655 16.2087C46.5844 16.131 46.6128 16.064 46.6506 16.0076C46.6885 15.9441 46.7421 15.8982 46.8115 15.87C46.8115 15.8065 46.7926 15.7641 46.7547 15.7429C46.7169 15.7147 46.7011 15.6688 46.7074 15.6053C46.8778 15.5136 47.026 15.3936 47.1522 15.2455C47.2784 15.0973 47.3919 14.942 47.4929 14.7797C47.6001 14.6104 47.7074 14.441 47.8146 14.2717C47.9219 14.1023 48.0417 13.9506 48.1742 13.8165V13.5943C48.3635 13.3684 48.4865 13.1144 48.5433 12.8322C48.6127 12.818 48.6568 12.7828 48.6758 12.7263C48.701 12.6699 48.7136 12.6028 48.7136 12.5252C48.7452 12.5252 48.7641 12.5111 48.7704 12.4829C48.783 12.4476 48.8114 12.437 48.8556 12.4511C48.9123 12.2818 48.9754 12.1265 49.0448 11.9854C49.1142 11.8443 49.1836 11.7031 49.253 11.562C49.3224 11.4138 49.3824 11.2621 49.4328 11.1069C49.4896 10.9516 49.5306 10.7787 49.5558 10.5882C49.6442 10.5811 49.6915 10.5353 49.6978 10.4506C49.7104 10.3589 49.723 10.2777 49.7356 10.2072C49.8303 10.1084 49.8997 9.99193 49.9438 9.85786C49.9943 9.72379 50.0385 9.58619 50.0763 9.44506C50.1142 9.29688 50.1552 9.15222 50.1993 9.01109C50.2498 8.8629 50.3192 8.73236 50.4075 8.61946V8.5877C50.4075 8.55242 50.3949 8.53125 50.3697 8.52419C50.3444 8.51008 50.3318 8.48538 50.3318 8.4501C50.3381 8.44304 50.3413 8.43599 50.3413 8.42893C50.417 8.39365 50.4738 8.3372 50.5116 8.25958C50.5495 8.1749 50.6063 8.11492 50.682 8.07964C50.8145 8.1996 50.9312 8.27369 51.0321 8.30192C51.1331 8.32308 51.2655 8.34073 51.4296 8.35484C51.5116 8.45363 51.5557 8.57359 51.5621 8.71472C51.5747 8.84879 51.5968 8.98286 51.6283 9.11693C51.6788 9.34274 51.7324 9.56502 51.7892 9.78377C51.8523 9.99546 51.8996 10.2142 51.9311 10.44C51.95 10.5741 51.9847 10.7011 52.0352 10.8211C52.0857 10.941 52.1204 11.0645 52.1393 11.1915C52.1519 11.2903 52.1519 11.4032 52.1393 11.5302C52.1267 11.6502 52.1393 11.756 52.1772 11.8478L52.2434 12.0171C52.2749 12.0948 52.3002 12.1759 52.3191 12.2606C52.3443 12.3453 52.3664 12.4299 52.3854 12.5146C52.4358 12.7263 52.48 12.9556 52.5178 13.2026C52.562 13.4425 52.6282 13.6613 52.7166 13.8589C52.7481 13.9294 52.7954 13.9788 52.8585 14.0071C52.9279 14.0353 53.0036 14.0565 53.0856 14.0706C53.1676 14.0776 53.2465 14.0811 53.3222 14.0811C53.4042 14.0741 53.4736 14.0706 53.5304 14.0706H53.625C53.6629 14.0706 53.7007 14.0776 53.7386 14.0917C53.7638 14.1482 53.7764 14.1976 53.7764 14.2399C53.7764 14.3246 53.7512 14.3916 53.7007 14.441C53.6503 14.4904 53.625 14.5469 53.625 14.6104C53.625 14.6457 53.6377 14.6845 53.6629 14.7268C53.6377 14.7198 53.5998 14.7162 53.5493 14.7162C53.4042 14.7162 53.2623 14.7445 53.1235 14.8009C53.174 14.9209 53.2402 15.0232 53.3222 15.1079C53.4105 15.1855 53.502 15.2596 53.5966 15.3301C53.6597 15.2737 53.726 15.2455 53.7954 15.2455C53.8711 15.2455 53.9405 15.2666 54.0036 15.309C54.073 15.3443 54.1455 15.3619 54.2212 15.3619C54.278 15.3619 54.319 15.3513 54.3442 15.3301C54.3947 15.3936 54.4357 15.4607 54.4673 15.5312C54.4988 15.5948 54.5398 15.6547 54.5903 15.7112ZM51.6283 14.0176C51.6157 13.8977 51.5936 13.813 51.5621 13.7636C51.5368 13.7072 51.5147 13.6401 51.4958 13.5625C51.4706 13.4637 51.4516 13.3579 51.439 13.245C51.4327 13.1321 51.4201 13.0227 51.4012 12.9168C51.357 12.6769 51.3065 12.437 51.2498 12.1971C51.1993 11.9572 51.1331 11.7243 51.051 11.4985C51.0763 11.4561 51.0889 11.4173 51.0889 11.3821V11.3503C51.0321 11.2797 50.9911 11.1951 50.9659 11.0963C50.9406 10.9904 50.9154 10.8881 50.8902 10.7893C50.8712 10.6835 50.8428 10.5882 50.805 10.5035C50.7734 10.4118 50.7198 10.3377 50.6441 10.2812C50.6252 10.3236 50.6157 10.373 50.6157 10.4294C50.6157 10.4788 50.6189 10.5247 50.6252 10.567C50.6378 10.6094 50.6441 10.6552 50.6441 10.7046C50.581 10.7399 50.5337 10.7964 50.5022 10.874C50.4769 10.9446 50.4328 11.001 50.3697 11.0433C50.3192 11.2692 50.2467 11.4844 50.152 11.689C50.0574 11.8866 49.9565 12.0842 49.8492 12.2818C49.7483 12.4793 49.6505 12.6804 49.5558 12.8851C49.4612 13.0827 49.3855 13.2908 49.3287 13.5096C49.2467 13.5731 49.1899 13.6542 49.1584 13.753C49.1332 13.8518 49.1205 13.9506 49.1205 14.0494C49.1773 14.0847 49.2404 14.1058 49.3098 14.1129C49.3855 14.1129 49.4581 14.1129 49.5275 14.1129C49.5969 14.1129 49.6631 14.12 49.7262 14.1341C49.7893 14.1482 49.8461 14.1835 49.8965 14.2399C49.9785 14.2117 50.0669 14.1941 50.1615 14.187C50.2624 14.1729 50.3444 14.1411 50.4075 14.0917C50.5337 14.1411 50.6694 14.1658 50.8145 14.1658C50.8902 14.1658 50.9627 14.1588 51.0321 14.1447C51.1078 14.1305 51.1804 14.1129 51.2498 14.0917C51.3065 14.1058 51.3507 14.1305 51.3823 14.1658C51.4138 14.1941 51.4611 14.2046 51.5242 14.1976C51.5557 14.1694 51.5747 14.1411 51.581 14.1129C51.5873 14.0776 51.6031 14.0459 51.6283 14.0176Z" fill="url(#paint4_linear_55_16)"/>
<path d="M62 15.9441C62 16.0005 61.9779 16.0464 61.9338 16.0817C61.8896 16.1169 61.8391 16.1522 61.7823 16.1875L61.612 16.2828C61.5552 16.311 61.5174 16.3498 61.4984 16.3992C61.4291 16.378 61.3597 16.3639 61.2903 16.3569C61.2272 16.3498 61.1641 16.3463 61.101 16.3463C61.019 16.3463 60.9338 16.3569 60.8455 16.378C60.7572 16.3921 60.6878 16.438 60.6373 16.5156C60.6057 16.5015 60.5774 16.4945 60.5521 16.4945H60.4764C60.3818 16.4945 60.284 16.5015 60.1831 16.5156C60.0884 16.5368 59.9938 16.5474 59.8992 16.5474C59.8487 16.5474 59.7982 16.5438 59.7477 16.5368C59.7036 16.5297 59.6626 16.5086 59.6247 16.4733C59.5679 16.4945 59.508 16.505 59.4449 16.505C59.3629 16.505 59.284 16.4909 59.2083 16.4627C59.1326 16.4345 59.0569 16.4027 58.9812 16.3674C58.9118 16.3251 58.8393 16.2863 58.7636 16.251C58.6879 16.2157 58.6122 16.1875 58.5365 16.1663L58.4702 16.0181C58.3693 15.997 58.2746 15.9652 58.1863 15.9229C58.1043 15.8735 58.0223 15.8206 57.9403 15.7641C57.8583 15.7077 57.7762 15.6547 57.6942 15.6053C57.6185 15.5489 57.5397 15.5101 57.4576 15.4889C57.4261 15.4607 57.3977 15.436 57.3725 15.4148C57.3472 15.3866 57.3283 15.3478 57.3157 15.2984C57.2337 15.2772 57.158 15.249 57.0886 15.2137L56.8899 15.0973C56.8268 15.0549 56.7542 15.0197 56.6722 14.9914C56.5965 14.9561 56.505 14.935 56.3978 14.9279C56.3599 14.8644 56.3063 14.8044 56.2369 14.748C56.1675 14.6915 56.0981 14.6633 56.0287 14.6633C55.9845 14.6633 55.9498 14.6739 55.9246 14.6951V14.748C55.9246 14.8327 55.9467 14.9173 55.9908 15.002C56.035 15.0867 56.0918 15.1467 56.1612 15.182C56.1549 15.1961 56.1517 15.2172 56.1517 15.2455C56.1517 15.2878 56.158 15.3301 56.1706 15.3725C56.1896 15.4148 56.2211 15.443 56.2653 15.4572C56.24 15.5348 56.2085 15.6159 56.1706 15.7006C56.1328 15.7782 56.0855 15.8523 56.0287 15.9229C55.9719 15.9934 55.9088 16.0534 55.8394 16.1028C55.7763 16.1452 55.7038 16.1663 55.6218 16.1663C55.5965 16.1804 55.5776 16.2016 55.565 16.2298C55.5587 16.2581 55.5524 16.2898 55.5461 16.3251C55.5461 16.3533 55.5398 16.3816 55.5271 16.4098C55.5208 16.438 55.5082 16.4592 55.4893 16.4733C55.4641 16.4803 55.4294 16.4839 55.3852 16.4839C55.3221 16.4839 55.2685 16.4733 55.2243 16.4521C55.1802 16.4309 55.1328 16.4027 55.0824 16.3674V16.3251C55.0824 16.2404 55.0666 16.1734 55.0351 16.124C55.0098 16.0746 54.9783 16.0287 54.9404 15.9864C54.9089 15.937 54.8773 15.8876 54.8458 15.8382C54.8206 15.7888 54.8079 15.7218 54.8079 15.6371C54.789 15.6512 54.7669 15.6618 54.7417 15.6688C54.7228 15.6759 54.7102 15.69 54.7038 15.7112C54.6912 15.6406 54.6849 15.5806 54.6849 15.5312C54.6849 15.3901 54.7038 15.256 54.7417 15.129C54.7859 15.002 54.8079 14.8679 54.8079 14.7268V14.568C54.8079 14.4057 54.8048 14.247 54.7985 14.0917C54.7922 13.9365 54.789 13.7812 54.789 13.626C54.789 13.4919 54.7922 13.3614 54.7985 13.2344C54.8048 13.1003 54.8174 12.9662 54.8363 12.8322C54.9057 12.3664 54.9625 11.9042 55.0067 11.4456C55.0571 10.9798 55.136 10.5176 55.2432 10.059C55.2369 10.0237 55.2275 9.98841 55.2149 9.95312C55.2085 9.91784 55.2054 9.88256 55.2054 9.84728C55.2054 9.81905 55.2085 9.80141 55.2149 9.79435C55.2401 9.65323 55.2969 9.53679 55.3852 9.44506C55.4735 9.34627 55.5871 9.29688 55.7259 9.29688H55.7543C55.83 9.33216 55.8867 9.38508 55.9246 9.45564C55.9688 9.51915 56.035 9.54385 56.1233 9.52974C56.1233 9.54385 56.1202 9.55796 56.1139 9.57208C56.1139 9.58619 56.1139 9.6003 56.1139 9.61442C56.1139 9.69204 56.1328 9.74849 56.1706 9.78377C56.2085 9.81905 56.2527 9.85786 56.3031 9.9002C56.2716 9.97077 56.2495 10.0519 56.2369 10.1436C56.2306 10.2354 56.2243 10.3271 56.218 10.4189C56.2117 10.5106 56.199 10.5988 56.1801 10.6835C56.1675 10.7681 56.1391 10.8387 56.0949 10.8952C56.1202 10.9657 56.1359 11.0363 56.1423 11.1069C56.1486 11.1774 56.1517 11.2515 56.1517 11.3291C56.1517 11.4068 56.1486 11.4879 56.1423 11.5726C56.1359 11.6502 56.1328 11.7314 56.1328 11.816C56.1328 11.8936 56.1423 11.9642 56.1612 12.0277C56.3 12.0277 56.3788 11.9536 56.3978 11.8054C56.5618 11.756 56.7069 11.689 56.8331 11.6043C56.9656 11.5126 57.0917 11.4173 57.2116 11.3185C57.3315 11.2198 57.4482 11.1174 57.5617 11.0116C57.6816 10.9057 57.8141 10.814 57.9592 10.7364V10.7152C57.9592 10.6799 57.9687 10.6588 57.9876 10.6517C58.0065 10.6376 58.0097 10.6058 57.9971 10.5565C58.0917 10.5212 58.1705 10.4753 58.2336 10.4189C58.303 10.3553 58.3661 10.2883 58.4229 10.2177L58.6027 9.99546C58.6658 9.91784 58.7352 9.85081 58.8109 9.79435C58.8614 9.67439 58.9055 9.54738 58.9434 9.41331C58.9875 9.27923 59.0443 9.15575 59.1137 9.04284C59.2336 9.04284 59.3629 9.05343 59.5017 9.0746C59.6468 9.09577 59.7698 9.14516 59.8708 9.22278C59.8582 9.27923 59.8802 9.31804 59.937 9.33921C59.8676 9.63558 59.7635 9.90373 59.6247 10.1436C59.4859 10.3765 59.3061 10.5741 59.0853 10.7364C59.0538 10.814 59.0128 10.881 58.9623 10.9375C58.9118 10.994 58.8614 11.0504 58.8109 11.1069C58.7604 11.1562 58.7099 11.2092 58.6595 11.2656C58.609 11.3221 58.568 11.3891 58.5365 11.4667C58.4608 11.4808 58.3945 11.5055 58.3377 11.5408C58.2873 11.5761 58.2368 11.6184 58.1863 11.6678C58.1422 11.7102 58.0917 11.7525 58.0349 11.7949C57.9844 11.8301 57.9277 11.8584 57.8646 11.8795C57.8141 11.9501 57.7542 12.0101 57.6848 12.0595C57.6217 12.1089 57.5554 12.1583 57.486 12.2077C57.4229 12.25 57.363 12.2994 57.3062 12.3558C57.2495 12.4052 57.2084 12.4723 57.1832 12.557H56.9372C56.8678 12.691 56.7763 12.8039 56.6627 12.8957C56.5555 12.9803 56.4451 13.0615 56.3315 13.1391C56.3504 13.2238 56.3851 13.2944 56.4356 13.3508C56.4861 13.4002 56.5397 13.4461 56.5965 13.4884C56.6596 13.5307 56.7195 13.5766 56.7763 13.626C56.8394 13.6683 56.893 13.7213 56.9372 13.7848C57.2021 13.8977 57.4576 14.0282 57.7037 14.1764C57.9497 14.3175 58.1832 14.4904 58.404 14.6951C58.4166 14.688 58.4324 14.6845 58.4513 14.6845C58.5018 14.6845 58.5428 14.7021 58.5743 14.7374C58.6059 14.7656 58.65 14.7762 58.7068 14.7692C58.732 14.8397 58.7667 14.8891 58.8109 14.9173C58.855 14.9385 58.8992 14.9561 58.9434 14.9703C58.9938 14.9844 59.0412 15.0055 59.0853 15.0338C59.1295 15.062 59.161 15.1114 59.18 15.182C59.2746 15.189 59.3598 15.2102 59.4355 15.2455C59.5175 15.2807 59.59 15.3372 59.6531 15.4148H59.7667C59.9686 15.4148 60.1641 15.436 60.3534 15.4783C60.5427 15.5207 60.7351 15.5418 60.9307 15.5418C61.0316 15.5418 61.1294 15.5348 61.224 15.5207C61.3186 15.4995 61.4101 15.4642 61.4984 15.4148C61.53 15.436 61.5647 15.4572 61.6025 15.4783C61.6404 15.4995 61.6814 15.5101 61.7256 15.5101C61.7571 15.5101 61.8044 15.503 61.8675 15.4889C61.8738 15.5665 61.8959 15.6406 61.9338 15.7112C61.9779 15.7818 62 15.8594 62 15.9441Z" fill="url(#paint5_linear_55_16)"/>
<path d="M27.8283 5.85685C27.7399 5.99798 27.6453 6.13206 27.5444 6.25907C27.4497 6.37903 27.3299 6.47429 27.1848 6.54486C27.1091 7.03175 27.046 7.52218 26.9955 8.01613C26.9513 8.51008 26.9009 9.00403 26.8441 9.49798C26.7936 9.99193 26.7337 10.4859 26.6643 10.9798C26.6012 11.4667 26.5129 11.9501 26.3993 12.4299L26.4088 12.557C26.4214 12.6981 26.4056 12.8322 26.3615 12.9592C26.3173 13.0862 26.2984 13.2238 26.3047 13.372C26.2164 13.619 26.1407 13.8942 26.0776 14.1976C26.0145 14.494 25.9766 14.7762 25.964 15.0444C25.9009 15.1643 25.8473 15.2949 25.8031 15.436C25.7653 15.5771 25.7243 15.7218 25.6801 15.87C25.6423 16.0111 25.5981 16.1487 25.5476 16.2828C25.4972 16.4098 25.4309 16.5262 25.3489 16.6321C25.33 16.7944 25.2921 16.9461 25.2353 17.0872C25.1849 17.2354 25.1249 17.38 25.0555 17.5212C24.9924 17.6623 24.9294 17.7999 24.8663 17.934C24.8095 18.0751 24.7685 18.2233 24.7433 18.3785C24.636 18.562 24.5288 18.7384 24.4215 18.9078C24.3143 19.0842 24.2165 19.2676 24.1281 19.4582C24.0461 19.5005 23.9736 19.5464 23.9105 19.5958C23.8537 19.6522 23.7969 19.7016 23.7401 19.744C23.6834 19.7933 23.6171 19.8357 23.5414 19.871C23.472 19.9062 23.3869 19.9239 23.2859 19.9239C23.2607 19.9239 23.2354 19.9204 23.2102 19.9133C23.1913 19.9133 23.1692 19.9133 23.144 19.9133C23.0556 19.8357 22.9673 19.7581 22.879 19.6804C22.7907 19.6099 22.696 19.5464 22.5951 19.4899C22.5951 19.4476 22.5888 19.4123 22.5762 19.3841C22.5699 19.3558 22.5636 19.3276 22.5572 19.2994C22.5509 19.2712 22.5478 19.2429 22.5478 19.2147C22.5478 19.1865 22.5541 19.1512 22.5667 19.1089C22.5099 19.0665 22.4437 18.9889 22.368 18.876C22.2986 18.7702 22.2639 18.6784 22.2639 18.6008C22.2639 18.5302 22.286 18.495 22.3301 18.495C22.3175 18.4244 22.2954 18.3538 22.2639 18.2833C22.2386 18.2198 22.226 18.1527 22.226 18.0822C22.226 18.0328 22.2386 17.9798 22.2639 17.9234C22.1945 17.7399 22.1314 17.5494 22.0746 17.3518C22.0178 17.1613 21.98 16.9637 21.9611 16.7591C21.898 16.6673 21.8475 16.5615 21.8096 16.4415C21.7781 16.3145 21.7529 16.184 21.7339 16.0499C21.715 15.9158 21.6992 15.7853 21.6866 15.6583C21.674 15.5242 21.6582 15.4007 21.6393 15.2878C21.633 15.2455 21.6172 15.1784 21.592 15.0867C21.5668 14.9879 21.5541 14.9209 21.5541 14.8856C21.5541 14.8432 21.5604 14.8115 21.5731 14.7903C21.592 14.7692 21.6078 14.7409 21.6204 14.7056C21.5447 14.3669 21.4816 14.0247 21.4311 13.6789C21.387 13.3332 21.3428 12.9874 21.2986 12.6416C21.2608 12.2959 21.2135 11.9536 21.1567 11.6149C21.1062 11.2692 21.0337 10.9304 20.939 10.5988V10.5035C20.939 10.2777 20.8602 10.0978 20.7024 9.96371C20.734 9.85786 20.7498 9.76966 20.7498 9.69909C20.7498 9.60736 20.7371 9.51915 20.7119 9.43448C20.693 9.3498 20.6709 9.26512 20.6457 9.18044C20.6204 9.09577 20.6015 9.01109 20.5889 8.92641C20.5826 8.84173 20.5889 8.75706 20.6078 8.67238C20.5384 8.5877 20.4816 8.49597 20.4375 8.39718C20.3933 8.29839 20.3365 8.21371 20.2671 8.14315L20.2577 8.07964C20.2577 8.04435 20.2671 8.0126 20.2861 7.98438C20.2987 7.95615 20.305 7.9244 20.305 7.88911C20.305 7.83972 20.2955 7.79738 20.2766 7.7621C20.2514 7.72681 20.2261 7.69506 20.2009 7.66683C20.1694 7.63861 20.1441 7.61038 20.1252 7.58216C20.1 7.55393 20.0873 7.52218 20.0873 7.4869C20.0873 7.40222 20.1126 7.33518 20.163 7.28579C20.2135 7.23639 20.2703 7.19405 20.3334 7.15877C20.3965 7.11643 20.4564 7.07409 20.5132 7.03175C20.5763 6.98942 20.6173 6.92944 20.6362 6.85181C20.6867 6.86593 20.7371 6.87651 20.7876 6.88357C20.8381 6.88357 20.8886 6.89768 20.939 6.92591C20.9453 6.91885 20.9485 6.90827 20.9485 6.89415C20.9485 6.87298 20.917 6.85534 20.8539 6.84123C20.7971 6.82006 20.7592 6.79536 20.7403 6.76714C20.7908 6.75302 20.8286 6.74597 20.8539 6.74597C20.98 6.74597 21.0999 6.78125 21.2135 6.85181C21.3333 6.92238 21.4469 6.99647 21.5541 7.07409C21.5668 7.1376 21.5699 7.20464 21.5636 7.2752C21.5573 7.33871 21.5762 7.39869 21.6204 7.45514C21.6141 7.49042 21.6109 7.52218 21.6109 7.5504C21.6172 7.57863 21.6204 7.60685 21.6204 7.63508C21.6204 7.67036 21.6141 7.70212 21.6015 7.73034C21.5951 7.75151 21.5794 7.7621 21.5541 7.7621C21.5983 7.84677 21.6267 7.94909 21.6393 8.06905C21.6582 8.18901 21.674 8.3125 21.6866 8.43952C21.7056 8.56653 21.7276 8.69002 21.7529 8.80998C21.7781 8.92994 21.8254 9.03579 21.8948 9.12752C21.8822 9.16986 21.8727 9.2122 21.8664 9.25454C21.8664 9.29688 21.8664 9.34274 21.8664 9.39214C21.8664 9.61794 21.8917 9.84022 21.9421 10.059C21.9926 10.2777 22.0178 10.5 22.0178 10.7258C22.0178 10.8599 21.9989 10.9834 21.9611 11.0963C21.9611 11.1598 21.98 11.2127 22.0178 11.255C22.0557 11.2903 22.0809 11.3397 22.0935 11.4032C22.062 11.4879 22.0462 11.5691 22.0462 11.6467C22.0462 11.809 22.0746 11.9642 22.1314 12.1124C22.1882 12.2535 22.2166 12.4017 22.2166 12.557C22.2166 12.6064 22.2103 12.6522 22.1976 12.6946C22.185 12.7369 22.1724 12.7757 22.1598 12.811C22.2166 12.8745 22.245 12.9556 22.245 13.0544C22.2513 13.1532 22.2797 13.2344 22.3301 13.2979C22.3238 13.3332 22.3175 13.3684 22.3112 13.4037C22.3112 13.439 22.2954 13.4672 22.2639 13.4884C22.2954 13.5378 22.3112 13.6048 22.3112 13.6895C22.3175 13.7671 22.3459 13.813 22.3964 13.8271C22.3838 13.8624 22.3743 13.8942 22.368 13.9224C22.3617 13.9506 22.3585 13.9824 22.3585 14.0176C22.3585 14.0953 22.368 14.1658 22.3869 14.2293L22.4437 14.4199C22.4626 14.4834 22.4752 14.5504 22.4815 14.621C22.4942 14.6915 22.4878 14.7692 22.4626 14.8538C22.4878 14.8962 22.5068 14.9456 22.5194 15.002C22.5383 15.0585 22.5541 15.1184 22.5667 15.182C22.5793 15.2384 22.5983 15.2913 22.6235 15.3407C22.6487 15.3831 22.6866 15.4113 22.737 15.4254C22.7434 15.4677 22.7276 15.4889 22.6897 15.4889C22.6582 15.4889 22.6424 15.5066 22.6424 15.5418C22.6424 15.5983 22.6613 15.6688 22.6992 15.7535C22.737 15.8311 22.7717 15.8876 22.8033 15.9229C22.797 15.9511 22.7938 15.9793 22.7938 16.0076V16.1028C22.7938 16.2016 22.8064 16.3039 22.8317 16.4098C22.8569 16.5086 22.879 16.6074 22.8979 16.7061C22.9232 16.812 22.9421 16.9143 22.9547 17.0131C22.9673 17.1119 22.961 17.2036 22.9358 17.2883C22.9862 17.3871 23.0304 17.4929 23.0683 17.6058C23.1061 17.7188 23.166 17.814 23.2481 17.8916C23.2481 18.0116 23.2701 18.1245 23.3143 18.2303C23.3585 18.3432 23.4152 18.4491 23.4846 18.5479C23.5477 18.5479 23.595 18.5232 23.6266 18.4738C23.6581 18.4315 23.6834 18.3821 23.7023 18.3256C23.7212 18.2692 23.7433 18.2162 23.7685 18.1668C23.7938 18.1174 23.8348 18.0892 23.8916 18.0822C23.8979 18.0116 23.9136 17.9516 23.9389 17.9022C23.9704 17.8599 23.9988 17.814 24.024 17.7646C24.0556 17.7152 24.0808 17.6623 24.0998 17.6058C24.125 17.5494 24.1344 17.4788 24.1281 17.3942L24.2322 17.3624C24.2638 17.1719 24.3111 16.999 24.3742 16.8438C24.4436 16.6956 24.5193 16.5403 24.6013 16.378V16.3251C24.6013 16.2545 24.6108 16.1946 24.6297 16.1452C24.6486 16.0958 24.6518 16.0323 24.6392 15.9546C24.6833 15.9405 24.7149 15.9123 24.7338 15.87C24.7527 15.8276 24.7685 15.7853 24.7811 15.7429C24.7937 15.6935 24.8063 15.6477 24.819 15.6053C24.8379 15.5559 24.8663 15.5207 24.9041 15.4995V15.4148C24.8978 15.3513 24.901 15.2913 24.9136 15.2349C24.9325 15.1714 24.9294 15.1079 24.9041 15.0444C24.9546 15.0232 24.9924 14.9879 25.0177 14.9385C25.0429 14.8891 25.0618 14.8362 25.0745 14.7797C25.0934 14.7233 25.1029 14.6633 25.1029 14.5998C25.1092 14.5363 25.1123 14.4798 25.1123 14.4304C25.1565 14.3669 25.188 14.2928 25.2069 14.2082C25.2259 14.1164 25.2416 14.0247 25.2543 13.933C25.2669 13.8412 25.2827 13.753 25.3016 13.6683C25.3268 13.5837 25.3647 13.5096 25.4151 13.4461C25.4025 13.4108 25.3962 13.379 25.3962 13.3508V13.2555C25.3962 13.1215 25.4151 13.0015 25.453 12.8957C25.4908 12.7828 25.5255 12.6628 25.5571 12.5358C25.6391 12.2182 25.6959 11.8936 25.7274 11.562C25.7653 11.2233 25.8189 10.8916 25.8883 10.567C25.8946 10.5318 25.9072 10.4753 25.9262 10.3977C25.9451 10.3201 25.964 10.2424 25.9829 10.1648C26.0019 10.0801 26.0176 10.006 26.0303 9.94254C26.0492 9.87198 26.0586 9.82611 26.0586 9.80494C26.0586 9.74849 26.046 9.70968 26.0208 9.68851C26.0019 9.66734 25.9924 9.63206 25.9924 9.58266C26.0303 9.51915 26.0555 9.438 26.0681 9.33921C26.0807 9.24042 26.0902 9.1381 26.0965 9.03226C26.1028 8.91935 26.1028 8.81351 26.0965 8.71472C26.0965 8.60887 26.0965 8.51714 26.0965 8.43952C26.0965 8.3619 26.1123 8.2631 26.1438 8.14315C26.1754 8.02319 26.1974 7.91734 26.2101 7.8256C26.2416 7.58569 26.2605 7.34929 26.2668 7.11643C26.2794 6.87651 26.2921 6.63659 26.3047 6.39667C26.3488 6.36845 26.3804 6.33317 26.3993 6.29083C26.4182 6.24143 26.4277 6.19204 26.4277 6.14264C26.4277 6.06502 26.4182 5.99093 26.3993 5.92036C26.3867 5.8498 26.3804 5.77571 26.3804 5.69808C26.3804 5.6628 26.3835 5.62752 26.3899 5.59224C26.3962 5.5499 26.4119 5.51462 26.4372 5.48639C26.4309 5.437 26.4246 5.3876 26.4182 5.33821C26.4182 5.28881 26.4025 5.24647 26.3709 5.21119C26.4025 5.11946 26.4182 5.02772 26.4182 4.93599C26.4182 4.85131 26.4088 4.76663 26.3899 4.68196C26.3772 4.59728 26.3709 4.50907 26.3709 4.41734C26.3709 4.24093 26.4372 4.11391 26.5697 4.03629H26.7021C26.7652 4.03629 26.8283 4.03276 26.8914 4.02571C26.9545 4.01865 27.0207 3.99748 27.0901 3.9622C27.1721 4.06099 27.2573 4.17036 27.3456 4.29032C27.434 4.40323 27.5097 4.52671 27.5728 4.66079C27.6358 4.79486 27.6832 4.93246 27.7147 5.07359C27.7463 5.21472 27.7494 5.3629 27.7242 5.51815C27.7494 5.5746 27.7652 5.63105 27.7715 5.6875C27.7778 5.74395 27.7967 5.8004 27.8283 5.85685ZM25.8978 11.6255C25.8725 11.6184 25.8536 11.6079 25.841 11.5938C25.8347 11.5726 25.8158 11.5585 25.7842 11.5514V11.6678H25.8599L25.8978 11.6255Z" stroke="url(#paint6_linear_55_16)"/>
<path d="M33.8469 10.3553C33.809 10.4189 33.7869 10.4894 33.7806 10.567C33.7743 10.6447 33.7712 10.7152 33.7712 10.7787C33.7712 10.8634 33.7712 10.9481 33.7712 11.0328C33.7775 11.1104 33.7806 11.188 33.7806 11.2656V11.4244C33.768 11.4738 33.7491 11.5232 33.7239 11.5726C33.6986 11.622 33.6797 11.6714 33.6671 11.7208C33.5788 11.9819 33.5346 12.2429 33.5346 12.504V12.5252C33.5031 12.6099 33.4715 12.6875 33.44 12.7581C33.4147 12.8286 33.3895 12.8992 33.3643 12.9698C33.339 13.0333 33.3201 13.1038 33.3075 13.1815C33.2949 13.252 33.2917 13.3367 33.298 13.4355C33.2097 13.6825 33.093 13.9083 32.9479 14.1129C32.8028 14.3105 32.6608 14.5151 32.522 14.7268C32.3895 14.7833 32.2665 14.8574 32.153 14.9491C32.0457 15.0408 31.9416 15.1431 31.8407 15.256C31.6451 15.3266 31.4527 15.4078 31.2634 15.4995C31.0742 15.5912 30.9038 15.7147 30.7524 15.87C30.6325 15.8841 30.5127 15.9052 30.3928 15.9335C30.2729 15.9617 30.1562 16.004 30.0427 16.0605H29.9291C29.8723 16.0605 29.8313 16.0464 29.8061 16.0181C29.7241 16.0675 29.6389 16.1028 29.5506 16.124C29.4622 16.1381 29.3739 16.1452 29.2856 16.1452C29.172 16.1452 29.0585 16.1381 28.9449 16.124C28.8377 16.1028 28.7273 16.0817 28.6137 16.0605C28.5506 15.9617 28.4623 15.8876 28.3487 15.8382C28.2352 15.7818 28.1342 15.7288 28.0459 15.6794C27.863 15.3972 27.7305 15.1255 27.6485 14.8644C27.5664 14.5963 27.4813 14.2964 27.393 13.9647C27.4056 13.8659 27.4277 13.7707 27.4592 13.6789C27.4907 13.5801 27.5034 13.4743 27.4971 13.3614C27.6106 12.9945 27.7589 12.6628 27.9418 12.3664C28.1311 12.063 28.3456 11.7737 28.5853 11.4985C28.5853 11.4561 28.5916 11.4209 28.6042 11.3926C28.6232 11.3644 28.6263 11.3221 28.6137 11.2656C28.62 11.2727 28.6326 11.2762 28.6516 11.2762C28.702 11.2762 28.7336 11.2621 28.7462 11.2339C28.7588 11.1986 28.762 11.1598 28.7557 11.1174C28.9828 10.9551 29.1878 10.7681 29.3708 10.5565C29.56 10.3448 29.7745 10.1683 30.0143 10.0272C30.0332 9.96371 30.0647 9.91079 30.1089 9.86845C30.1531 9.82611 30.1878 9.77671 30.213 9.72026C30.4149 9.65675 30.5978 9.56149 30.7619 9.43448C30.9259 9.30746 31.0994 9.19456 31.2823 9.09577C31.3833 9.03226 31.4779 8.98992 31.5662 8.96875C31.6609 8.94052 31.7618 8.9123 31.8691 8.88407C31.9069 8.86996 31.9416 8.85938 31.9732 8.85232C32.0047 8.84526 32.0394 8.84173 32.0773 8.84173C32.1908 8.84173 32.3012 8.86643 32.4085 8.91583C32.5157 8.95817 32.6261 8.97933 32.7397 8.97933C32.7712 8.97933 32.7965 8.97933 32.8154 8.97933C32.8406 8.97228 32.8659 8.96522 32.8911 8.95817C32.9983 9.10635 33.134 9.21925 33.298 9.29688C33.3359 9.40272 33.38 9.49446 33.4305 9.57208C33.4873 9.6497 33.5441 9.72732 33.6008 9.80494C33.6576 9.8755 33.7081 9.95665 33.7522 10.0484C33.8027 10.1331 33.8343 10.2354 33.8469 10.3553ZM32.9006 10.9057C32.9006 10.8705 32.8974 10.8387 32.8911 10.8105C32.828 10.7893 32.7681 10.7611 32.7113 10.7258C32.6545 10.6905 32.5914 10.6729 32.522 10.6729C32.4779 10.6729 32.4337 10.6835 32.3895 10.7046C32.3832 10.6552 32.3643 10.62 32.3328 10.5988C32.3075 10.5776 32.276 10.56 32.2381 10.5459C32.2066 10.5247 32.1719 10.5106 32.134 10.5035C32.1025 10.4894 32.0741 10.4682 32.0489 10.44C32.0299 10.3836 32.0079 10.3271 31.9826 10.2707C31.9637 10.2072 31.9258 10.1613 31.8691 10.1331C31.8123 10.1966 31.746 10.2495 31.6703 10.2918C31.5946 10.3271 31.5158 10.3624 31.4338 10.3977C31.3581 10.433 31.2823 10.4753 31.2066 10.5247C31.1372 10.5741 31.0773 10.6341 31.0268 10.7046H30.8565C30.8186 10.7823 30.765 10.8422 30.6956 10.8846C30.6262 10.9199 30.5663 10.9728 30.5158 11.0433C30.4149 11.0998 30.3202 11.1704 30.2319 11.255C30.1499 11.3327 30.0679 11.4173 29.9859 11.5091C29.9039 11.5938 29.8219 11.682 29.7398 11.7737C29.6641 11.8654 29.5821 11.9501 29.4938 12.0277C29.4118 12.2253 29.3203 12.3982 29.2194 12.5464C29.1247 12.6875 29.0332 12.8322 28.9449 12.9803C28.8629 13.1285 28.7904 13.2908 28.7273 13.4672C28.6705 13.6366 28.6421 13.8483 28.6421 14.1023V14.2082C28.6421 14.2434 28.6453 14.2787 28.6516 14.314C28.7336 14.4128 28.7998 14.5186 28.8503 14.6316C28.9071 14.7445 28.9986 14.8256 29.1247 14.875C29.2509 14.9315 29.3834 14.9561 29.5222 14.9491C29.6673 14.942 29.8061 14.9597 29.9386 15.002C30.2414 14.9385 30.5316 14.8362 30.8092 14.6951C31.0931 14.5469 31.3612 14.3705 31.6136 14.1658C31.6514 14.1305 31.6956 14.0953 31.746 14.06C31.7965 14.0176 31.8375 13.9753 31.8691 13.933C31.9006 13.8977 31.9258 13.8589 31.9448 13.8165C31.97 13.7742 31.9952 13.7354 32.0205 13.7001C32.0709 13.6084 32.1277 13.5166 32.1908 13.4249C32.2539 13.3332 32.3201 13.2485 32.3895 13.1709C32.4211 13.0156 32.4621 12.8674 32.5126 12.7263C32.563 12.5781 32.6135 12.4335 32.664 12.2923C32.7144 12.1512 32.7555 12.0066 32.787 11.8584C32.8249 11.7102 32.8438 11.5549 32.8438 11.3926C32.8438 11.3574 32.8406 11.3185 32.8343 11.2762C32.8343 11.2339 32.8312 11.1951 32.8249 11.1598C32.8753 11.0822 32.9006 10.9975 32.9006 10.9057Z" stroke="url(#paint7_linear_55_16)"/>
<path d="M42.6477 9.67792C42.6225 9.76966 42.5814 9.85433 42.5247 9.93196L42.3638 10.1542C42.3133 10.2248 42.2692 10.3024 42.2313 10.3871C42.1998 10.4647 42.1903 10.5565 42.2029 10.6623C42.1903 10.6623 42.1745 10.6623 42.1556 10.6623C42.1367 10.6552 42.1209 10.6517 42.1083 10.6517C42.0073 10.6517 41.9285 10.6799 41.8717 10.7364C41.8212 10.7858 41.7518 10.8281 41.6635 10.8634C41.6509 10.8211 41.6351 10.7823 41.6162 10.747C41.5973 10.7046 41.5689 10.6764 41.531 10.6623C41.3796 10.6976 41.2282 10.7258 41.0768 10.747C40.9254 10.7611 40.774 10.7823 40.6226 10.8105C40.5532 10.8246 40.4838 10.8458 40.4144 10.874C40.345 10.8952 40.2724 10.9163 40.1967 10.9375C40.1589 10.9516 40.1179 10.9587 40.0737 10.9587C40.0295 10.9516 39.9854 10.9516 39.9412 10.9587C39.7898 10.9657 39.6258 10.9798 39.4491 11.001C39.2725 11.0151 39.1147 11.068 38.976 11.1598C38.9129 11.1457 38.8466 11.1351 38.7772 11.128C38.7078 11.121 38.6384 11.1174 38.569 11.1174C38.4176 11.1174 38.2504 11.1351 38.0675 11.1704C37.8908 11.1986 37.7331 11.2586 37.5943 11.3503C37.5628 11.3362 37.5281 11.3256 37.4902 11.3185C37.4587 11.3115 37.4208 11.308 37.3767 11.308C37.364 11.308 37.3546 11.3115 37.3483 11.3185C37.342 11.3185 37.3325 11.3185 37.3199 11.3185C37.3136 11.3821 37.3199 11.4456 37.3388 11.5091C37.364 11.5655 37.4051 11.6114 37.4618 11.6467C37.4366 11.7243 37.424 11.809 37.424 11.9007C37.424 12.0207 37.4303 12.1406 37.4429 12.2606C37.4618 12.3805 37.4713 12.5005 37.4713 12.6205C37.4713 12.7545 37.4555 12.8604 37.424 12.938C37.4871 13.1497 37.5186 13.3755 37.5186 13.6154C37.5186 13.7001 37.5123 13.7848 37.4997 13.8695C37.4934 13.9471 37.4902 14.0318 37.4902 14.1235C37.4902 14.2011 37.5155 14.2646 37.5659 14.314C37.6164 14.3563 37.6416 14.4163 37.6416 14.494C37.6416 14.5222 37.6353 14.5504 37.6227 14.5786C37.711 14.5575 37.7962 14.5292 37.8782 14.494C37.9602 14.4516 38.0454 14.4304 38.1337 14.4304C38.1842 14.4304 38.2315 14.441 38.2757 14.4622C38.3261 14.4834 38.3703 14.5116 38.4082 14.5469C38.4019 14.5822 38.3955 14.621 38.3892 14.6633C38.3892 14.7056 38.3892 14.748 38.3892 14.7903C38.3892 14.8679 38.3892 14.942 38.3892 15.0126C38.3955 15.0761 38.4019 15.1467 38.4082 15.2243C38.3577 15.3231 38.2978 15.4113 38.2284 15.4889C38.1653 15.5665 38.1211 15.6653 38.0959 15.7853C38.0012 15.7853 37.9161 15.81 37.8404 15.8594C37.771 15.9017 37.7047 15.9511 37.6416 16.0076C37.5785 16.057 37.5155 16.1063 37.4524 16.1557C37.3893 16.1981 37.3199 16.2193 37.2442 16.2193C37.1495 16.2193 37.0833 16.2051 37.0455 16.1769C37.0076 16.1416 36.9792 16.1063 36.9603 16.0711C36.9414 16.0358 36.9224 16.004 36.9035 15.9758C36.8909 15.9476 36.8593 15.937 36.8089 15.9441C36.7963 15.8523 36.771 15.7676 36.7332 15.69C36.6953 15.6053 36.6543 15.5242 36.6101 15.4466C36.5723 15.369 36.5313 15.2913 36.4871 15.2137C36.4493 15.129 36.4209 15.0444 36.402 14.9597C36.3641 14.7762 36.3483 14.5857 36.3546 14.3881C36.3609 14.1905 36.3326 14 36.2695 13.8165C36.2821 13.7177 36.2915 13.619 36.2979 13.5202C36.3042 13.4143 36.3073 13.312 36.3073 13.2132C36.3073 13.0156 36.301 12.8216 36.2884 12.631C36.2821 12.4335 36.2758 12.2324 36.2695 12.0277C36.2253 11.9642 36.1969 11.8936 36.1843 11.816C36.178 11.7314 36.1717 11.6502 36.1654 11.5726C36.1464 11.5514 36.1244 11.5302 36.0991 11.5091C36.0802 11.4879 36.0676 11.4597 36.0613 11.4244C36.0108 11.4103 35.973 11.4032 35.9477 11.4032C35.8594 11.4032 35.7837 11.4279 35.7206 11.4773C35.6638 11.5197 35.6102 11.5408 35.5597 11.5408C35.5093 11.5408 35.4619 11.5338 35.4178 11.5197C35.3736 11.5055 35.3295 11.4985 35.2853 11.4985C35.2474 11.4985 35.2254 11.5091 35.2191 11.5302C35.2191 11.5444 35.2064 11.5585 35.1812 11.5726C35.1623 11.5867 35.1181 11.6008 35.0487 11.6149C34.9793 11.629 34.9005 11.6431 34.8121 11.6573C34.7301 11.6643 34.6481 11.6714 34.5661 11.6784C34.4904 11.6855 34.4399 11.689 34.4147 11.689C34.3137 11.689 34.238 11.6678 34.1876 11.6255C34.1308 11.5761 34.0645 11.5232 33.9888 11.4667C34.0014 11.4244 34.0078 11.3962 34.0078 11.3821C34.0078 11.3115 33.9888 11.255 33.951 11.2127C33.9131 11.1633 33.8942 11.121 33.8942 11.0857C33.8942 11.0081 33.9226 10.9481 33.9794 10.9057C34.0298 10.8634 34.0582 10.7964 34.0645 10.7046C34.2096 10.6341 34.3579 10.5811 34.5093 10.5459C34.6607 10.5106 34.8153 10.4824 34.973 10.4612C35.1307 10.44 35.2853 10.4153 35.4367 10.3871C35.5944 10.3589 35.749 10.313 35.9004 10.2495C35.9446 10.2566 35.9856 10.2636 36.0234 10.2707C36.0676 10.2707 36.1117 10.2707 36.1559 10.2707C36.3452 10.2707 36.5313 10.2495 36.7142 10.2072C36.9035 10.1578 37.0959 10.1331 37.2915 10.1331C37.342 10.1331 37.3924 10.1366 37.4429 10.1436C37.4934 10.1507 37.5438 10.1613 37.5943 10.1754C37.8467 10.1331 38.0959 10.0872 38.3419 10.0378C38.5943 9.98841 38.8529 9.94607 39.1179 9.91079C39.2441 9.89667 39.3671 9.88609 39.487 9.87903C39.6131 9.86492 39.7393 9.84728 39.8655 9.82611C39.9097 9.81905 39.9412 9.80847 39.9601 9.79435C39.9854 9.77318 39.998 9.73438 39.998 9.67792C40.0548 9.70615 40.1179 9.72026 40.1872 9.72026C40.2945 9.72026 40.3986 9.69909 40.4995 9.65675C40.6005 9.61442 40.7046 9.59325 40.8118 9.59325C40.8371 9.59325 40.8591 9.59677 40.8781 9.60383C40.897 9.60383 40.9159 9.60383 40.9348 9.60383C40.979 9.60383 41.0011 9.58266 41.0011 9.54032C41.0074 9.49093 41.0389 9.45917 41.0957 9.44506C41.1399 9.43095 41.203 9.42036 41.285 9.41331C41.367 9.40625 41.4522 9.39919 41.5405 9.39214C41.6351 9.37802 41.7203 9.36391 41.796 9.3498C41.878 9.32863 41.9379 9.3004 41.9758 9.26512L42.042 9.14869C42.1556 9.15575 42.2376 9.2122 42.2881 9.31804C42.3449 9.41683 42.3764 9.52621 42.3827 9.64617C42.408 9.67439 42.4426 9.68851 42.4868 9.68851C42.5373 9.68145 42.5814 9.67792 42.6193 9.67792H42.6477Z" stroke="url(#paint8_linear_55_16)"/>
<path d="M50.4359 6.39667C50.3855 6.43196 50.3318 6.45312 50.2751 6.46018C50.2183 6.46724 50.1583 6.47782 50.0953 6.49194C50.0385 6.49899 49.9848 6.5131 49.9344 6.53427C49.8839 6.55544 49.8461 6.59425 49.8208 6.65071C49.7577 6.58014 49.6883 6.52016 49.6126 6.47077C49.5369 6.42137 49.4612 6.36845 49.3855 6.312C49.3224 6.33317 49.2593 6.36139 49.1962 6.39667C49.1332 6.43196 49.0701 6.4496 49.007 6.4496C48.9628 6.4496 48.9187 6.43196 48.8745 6.39667C48.824 6.43901 48.7641 6.47429 48.6947 6.50252C48.6316 6.52369 48.5622 6.54486 48.4865 6.56603C48.4171 6.5872 48.3509 6.61542 48.2878 6.65071C48.231 6.68599 48.19 6.73891 48.1648 6.80948C48.1521 6.77419 48.1206 6.76361 48.0701 6.77772C48.026 6.79183 48.0007 6.77419 47.9944 6.7248C47.7925 6.80242 47.5875 6.86946 47.3793 6.92591C47.1711 6.98236 46.9629 7.04234 46.7547 7.10585C46.5465 7.16935 46.3415 7.23992 46.1396 7.31754C45.9377 7.39516 45.7422 7.49042 45.5529 7.60333C45.5466 7.61038 45.5434 7.62097 45.5434 7.63508C45.5434 7.70565 45.5529 7.77268 45.5718 7.83619C45.5908 7.8997 45.6065 7.95968 45.6191 8.01613C45.5056 8.44657 45.4299 8.88407 45.392 9.32863C45.3542 9.77318 45.3037 10.2107 45.2406 10.6411V10.6835C45.2406 10.7188 45.2532 10.747 45.2785 10.7681C45.3037 10.7823 45.3163 10.8105 45.3163 10.8528L45.3069 10.874C45.2753 10.8952 45.2532 10.9269 45.2406 10.9693C45.228 11.0045 45.2217 11.0433 45.2217 11.0857C45.2217 11.1139 45.228 11.1562 45.2406 11.2127C45.1334 11.6149 45.0608 12.0242 45.023 12.4405C44.9914 12.8569 44.9504 13.2732 44.8999 13.6895L44.8148 14.3881C44.8022 14.4304 44.7895 14.4728 44.7769 14.5151C44.7706 14.5504 44.7675 14.5892 44.7675 14.6316C44.7675 14.8574 44.7801 15.0796 44.8053 15.2984C44.8368 15.5101 44.8463 15.7288 44.8337 15.9546C44.8905 16.0534 44.9189 16.1487 44.9189 16.2404C44.9189 16.2757 44.9157 16.311 44.9094 16.3463C44.9094 16.3816 44.9062 16.4168 44.8999 16.4521C44.982 16.5438 45.0766 16.6074 45.1838 16.6426C45.2974 16.685 45.3983 16.7485 45.4867 16.8332V16.8755C45.4867 16.9461 45.4772 17.0131 45.4583 17.0766C45.4393 17.1472 45.4236 17.2177 45.4109 17.2883C45.3983 17.3448 45.3826 17.4259 45.3636 17.5318C45.351 17.6376 45.3321 17.7082 45.3069 17.7434C45.2753 17.7928 45.228 17.8352 45.1649 17.8705C45.1081 17.9128 45.0513 17.934 44.9946 17.934C44.9756 17.934 44.9473 17.9234 44.9094 17.9022C44.8779 17.881 44.8526 17.8634 44.8337 17.8493C44.8022 17.8493 44.7611 17.8669 44.7107 17.9022C44.6602 17.9375 44.6097 17.9551 44.5593 17.9551C44.534 17.9551 44.5119 17.9516 44.493 17.9446C44.4741 17.9446 44.452 17.9375 44.4268 17.9234C44.4015 17.8528 44.3637 17.7893 44.3132 17.7329C44.2691 17.6835 44.2154 17.6341 44.1523 17.5847C44.1586 17.4859 44.1429 17.4118 44.105 17.3624C44.0672 17.313 44.0293 17.2495 43.9915 17.1719C43.9788 17.0731 43.9662 16.9602 43.9536 16.8332C43.9473 16.7061 43.9 16.6144 43.8117 16.558C43.8432 16.5086 43.859 16.4415 43.859 16.3569C43.859 16.3216 43.8527 16.2828 43.8401 16.2404C43.8337 16.1981 43.8148 16.1663 43.7833 16.1452V16.124C43.777 16.0887 43.7864 16.064 43.8117 16.0499C43.8432 16.0287 43.859 16.0005 43.859 15.9652V15.9229C43.8148 15.6971 43.7927 15.4607 43.7927 15.2137C43.7927 14.9808 43.799 14.7515 43.8117 14.5257C43.8243 14.2928 43.8243 14.06 43.8117 13.8271C43.8495 13.7918 43.8779 13.7354 43.8968 13.6578C43.9221 13.5801 43.941 13.4955 43.9536 13.4037C43.9662 13.312 43.9725 13.2238 43.9725 13.1391C43.9788 13.0474 43.9852 12.9733 43.9915 12.9168C44.023 12.5146 44.0735 12.1195 44.1429 11.7314C44.2123 11.3362 44.2533 10.934 44.2659 10.5247C44.2974 10.4682 44.3164 10.3942 44.3227 10.3024C44.329 10.2107 44.3321 10.1154 44.3321 10.0166C44.3321 9.91079 44.3385 9.80847 44.3511 9.70968C44.3637 9.61089 44.3889 9.52621 44.4268 9.45564C44.4268 9.25806 44.4425 9.06048 44.4741 8.8629C44.5056 8.65827 44.5214 8.45363 44.5214 8.24899C44.5214 8.1502 44.5119 8.04788 44.493 7.94204C44.4299 7.91381 44.3731 7.8997 44.3227 7.8997C44.2533 7.8997 44.1807 7.91734 44.105 7.95262C44.0356 7.98085 43.9852 8.02671 43.9536 8.09022C43.8148 8.09728 43.6792 8.12198 43.5467 8.16431C43.4142 8.20665 43.2817 8.22782 43.1492 8.22782H43.0546C43.0294 8.22782 43.001 8.22429 42.9694 8.21724C42.9253 8.23841 42.878 8.25605 42.8275 8.27016C42.7833 8.28427 42.7644 8.32661 42.7707 8.39718C42.5751 8.41835 42.3827 8.46421 42.1935 8.53478C42.0105 8.60534 41.8275 8.68296 41.6446 8.76764C41.4616 8.84526 41.2787 8.91935 41.0957 8.98992C40.9065 9.06048 40.714 9.10635 40.5185 9.12752C40.4491 9.1628 40.4049 9.23689 40.386 9.3498C40.2472 9.33568 40.1305 9.29688 40.0358 9.23337C39.9412 9.16986 39.8308 9.10988 39.7046 9.05343C39.6668 8.90524 39.6478 8.76411 39.6478 8.63004C39.6478 8.45363 39.6794 8.28427 39.7425 8.12198C39.8056 7.95968 39.9065 7.83972 40.0453 7.7621C40.0768 7.76915 40.1052 7.77621 40.1305 7.78327C40.1557 7.78327 40.1841 7.78327 40.2156 7.78327C40.3166 7.78327 40.4175 7.7621 40.5185 7.71976C40.6194 7.67742 40.7235 7.65625 40.8307 7.65625C40.8623 7.65625 40.897 7.66683 40.9348 7.688C40.979 7.65978 41.0358 7.63861 41.1052 7.6245C41.1683 7.60333 41.2282 7.58569 41.285 7.57157C41.3481 7.5504 41.4049 7.52218 41.4553 7.4869C41.5058 7.45161 41.5373 7.40222 41.55 7.33871C41.5815 7.36694 41.6162 7.38458 41.654 7.39163C41.6919 7.39869 41.7298 7.40222 41.7676 7.40222C41.8496 7.40222 41.9348 7.38458 42.0231 7.34929C42.1114 7.31401 42.1808 7.25756 42.2313 7.17994C42.2755 7.23639 42.3386 7.26462 42.4206 7.26462C42.5089 7.26462 42.5941 7.23992 42.6761 7.19052C42.7644 7.13407 42.8496 7.10585 42.9316 7.10585C42.9947 7.10585 43.042 7.13054 43.0735 7.17994C43.1429 7.11643 43.2249 7.06704 43.3196 7.03175C43.4142 6.99647 43.5088 6.96472 43.6035 6.93649C43.7044 6.90827 43.7959 6.87651 43.8779 6.84123C43.9662 6.80595 44.0356 6.75655 44.0861 6.69304C44.1176 6.7001 44.1681 6.70363 44.2375 6.70363C44.3448 6.70363 44.4457 6.68952 44.5403 6.66129C44.6413 6.62601 44.7422 6.59425 44.8432 6.56603L45.0419 6.54486C45.0924 6.5378 45.1365 6.52016 45.1744 6.49194C45.2185 6.46371 45.2627 6.43901 45.3069 6.41784C45.351 6.39667 45.3952 6.37903 45.4393 6.36492C45.4898 6.35081 45.5497 6.34728 45.6191 6.35433C45.7706 6.2626 45.9314 6.19204 46.1018 6.14264C46.2721 6.09325 46.4456 6.05091 46.6222 6.01562C46.7989 5.97329 46.9724 5.92742 47.1427 5.87802C47.3131 5.82157 47.4739 5.74042 47.6253 5.63458H47.6537C47.7799 5.63458 47.9029 5.60988 48.0228 5.56048C48.149 5.51109 48.2657 5.44405 48.3729 5.35938C48.3919 5.36643 48.4108 5.36996 48.4297 5.36996H48.496C48.6726 5.36996 48.8429 5.34173 49.007 5.28528C49.1773 5.22883 49.354 5.2006 49.5369 5.2006C49.6442 5.2006 49.7293 5.21825 49.7924 5.25353C49.8555 5.28175 49.9123 5.32056 49.9628 5.36996C50.0132 5.4123 50.0669 5.45464 50.1236 5.49698C50.1804 5.53931 50.253 5.57107 50.3413 5.59224C50.3981 5.7122 50.4265 5.84274 50.4265 5.98387C50.4265 6.11794 50.4296 6.25554 50.4359 6.39667Z" stroke="url(#paint9_linear_55_16)"/>
<path d="M54.5903 15.7112C54.5714 15.81 54.5304 15.8911 54.4673 15.9546C54.4105 16.0111 54.3411 16.057 54.2591 16.0922C54.1771 16.1275 54.0919 16.1522 54.0036 16.1663C53.9216 16.1734 53.8458 16.1769 53.7764 16.1769C53.7449 16.1769 53.7134 16.1769 53.6818 16.1769C53.6566 16.1699 53.6282 16.1663 53.5966 16.1663C53.5651 16.1663 53.5493 16.184 53.5493 16.2193C53.5493 16.2545 53.5336 16.2792 53.502 16.2933C53.4705 16.2792 53.4389 16.2686 53.4074 16.2616C53.3758 16.2545 53.3443 16.251 53.3128 16.251C53.2686 16.251 53.2244 16.2545 53.1803 16.2616C53.1424 16.2686 53.1046 16.2722 53.0667 16.2722C53.0162 16.2722 52.9784 16.2651 52.9531 16.251C52.9342 16.2369 52.9153 16.2228 52.8964 16.2087C52.8838 16.1875 52.868 16.1663 52.8491 16.1452C52.8364 16.124 52.8144 16.1063 52.7828 16.0922C52.7386 16.0711 52.7008 16.0675 52.6693 16.0817C52.644 16.0958 52.603 16.0746 52.5462 16.0181C52.4705 15.9476 52.4043 15.8629 52.3475 15.7641C52.297 15.6583 52.2466 15.5489 52.1961 15.436C52.1456 15.3231 52.092 15.2102 52.0352 15.0973C51.9784 14.9844 51.9122 14.8856 51.8365 14.8009H51.7608C51.6472 14.8009 51.5684 14.8538 51.5242 14.9597C51.4927 14.9385 51.4611 14.9138 51.4296 14.8856C51.398 14.8503 51.3633 14.8221 51.3255 14.8009C51.1804 14.8503 51.029 14.8926 50.8712 14.9279C50.7135 14.9632 50.5558 14.9808 50.3981 14.9808H50.2656C50.2277 14.9808 50.1867 14.9738 50.1426 14.9597C50.0795 14.9879 50.0227 15.0232 49.9722 15.0655C49.9218 15.1008 49.865 15.1184 49.8019 15.1184C49.764 15.1184 49.7199 15.1043 49.6694 15.0761C49.6316 15.0761 49.6126 15.0938 49.6126 15.129C49.6189 15.1643 49.6 15.182 49.5558 15.182H49.4707C49.3824 15.182 49.294 15.1855 49.2057 15.1925C49.1237 15.1996 49.0385 15.2031 48.9502 15.2031C48.8303 15.2031 48.7073 15.1855 48.5811 15.1502C48.5496 15.1714 48.5149 15.182 48.477 15.182C48.4518 15.1961 48.4329 15.2208 48.4203 15.256C48.4076 15.2843 48.395 15.3125 48.3824 15.3407C48.3698 15.3619 48.3509 15.3831 48.3256 15.4042C48.3067 15.4183 48.2783 15.4219 48.2405 15.4148C48.2278 15.4995 48.1963 15.5665 48.1458 15.6159C48.0954 15.6653 48.0701 15.7394 48.0701 15.8382C48.0007 15.8805 47.9439 15.9335 47.8998 15.997C47.8556 16.0605 47.8115 16.1275 47.7673 16.1981C47.7231 16.2686 47.6758 16.3357 47.6253 16.3992C47.5812 16.4627 47.5244 16.5121 47.455 16.5474C47.4235 16.5897 47.414 16.6568 47.4266 16.7485C47.3572 16.812 47.2721 16.8684 47.1711 16.9178C47.0702 16.9672 46.9755 16.9919 46.8872 16.9919C46.7043 16.9919 46.5781 16.8826 46.5087 16.6638C46.5087 16.5932 46.515 16.5192 46.5276 16.4415C46.5339 16.3569 46.5465 16.2792 46.5655 16.2087C46.5844 16.131 46.6128 16.064 46.6506 16.0076C46.6885 15.9441 46.7421 15.8982 46.8115 15.87C46.8115 15.8065 46.7926 15.7641 46.7547 15.7429C46.7169 15.7147 46.7011 15.6688 46.7074 15.6053C46.8778 15.5136 47.026 15.3936 47.1522 15.2455C47.2784 15.0973 47.3919 14.942 47.4929 14.7797C47.6001 14.6104 47.7074 14.441 47.8146 14.2717C47.9219 14.1023 48.0417 13.9506 48.1742 13.8165V13.5943C48.3635 13.3684 48.4865 13.1144 48.5433 12.8322C48.6127 12.818 48.6568 12.7828 48.6758 12.7263C48.701 12.6699 48.7136 12.6028 48.7136 12.5252C48.7452 12.5252 48.7641 12.5111 48.7704 12.4829C48.783 12.4476 48.8114 12.437 48.8556 12.4511C48.9123 12.2818 48.9754 12.1265 49.0448 11.9854C49.1142 11.8443 49.1836 11.7031 49.253 11.562C49.3224 11.4138 49.3824 11.2621 49.4328 11.1069C49.4896 10.9516 49.5306 10.7787 49.5558 10.5882C49.6442 10.5811 49.6915 10.5353 49.6978 10.4506C49.7104 10.3589 49.723 10.2777 49.7356 10.2072C49.8303 10.1084 49.8997 9.99193 49.9438 9.85786C49.9943 9.72379 50.0385 9.58619 50.0763 9.44506C50.1142 9.29688 50.1552 9.15222 50.1993 9.01109C50.2498 8.8629 50.3192 8.73236 50.4075 8.61946V8.5877C50.4075 8.55242 50.3949 8.53125 50.3697 8.52419C50.3444 8.51008 50.3318 8.48538 50.3318 8.4501C50.3381 8.44304 50.3413 8.43599 50.3413 8.42893C50.417 8.39365 50.4738 8.3372 50.5116 8.25958C50.5495 8.1749 50.6063 8.11492 50.682 8.07964C50.8145 8.1996 50.9312 8.27369 51.0321 8.30192C51.1331 8.32308 51.2655 8.34073 51.4296 8.35484C51.5116 8.45363 51.5557 8.57359 51.5621 8.71472C51.5747 8.84879 51.5968 8.98286 51.6283 9.11693C51.6788 9.34274 51.7324 9.56502 51.7892 9.78377C51.8523 9.99546 51.8996 10.2142 51.9311 10.44C51.95 10.5741 51.9847 10.7011 52.0352 10.8211C52.0857 10.941 52.1204 11.0645 52.1393 11.1915C52.1519 11.2903 52.1519 11.4032 52.1393 11.5302C52.1267 11.6502 52.1393 11.756 52.1772 11.8478L52.2434 12.0171C52.2749 12.0948 52.3002 12.1759 52.3191 12.2606C52.3443 12.3453 52.3664 12.4299 52.3854 12.5146C52.4358 12.7263 52.48 12.9556 52.5178 13.2026C52.562 13.4425 52.6282 13.6613 52.7166 13.8589C52.7481 13.9294 52.7954 13.9788 52.8585 14.0071C52.9279 14.0353 53.0036 14.0565 53.0856 14.0706C53.1676 14.0776 53.2465 14.0811 53.3222 14.0811C53.4042 14.0741 53.4736 14.0706 53.5304 14.0706H53.625C53.6629 14.0706 53.7007 14.0776 53.7386 14.0917C53.7638 14.1482 53.7764 14.1976 53.7764 14.2399C53.7764 14.3246 53.7512 14.3916 53.7007 14.441C53.6503 14.4904 53.625 14.5469 53.625 14.6104C53.625 14.6457 53.6377 14.6845 53.6629 14.7268C53.6377 14.7198 53.5998 14.7162 53.5493 14.7162C53.4042 14.7162 53.2623 14.7445 53.1235 14.8009C53.174 14.9209 53.2402 15.0232 53.3222 15.1079C53.4105 15.1855 53.502 15.2596 53.5966 15.3301C53.6597 15.2737 53.726 15.2455 53.7954 15.2455C53.8711 15.2455 53.9405 15.2666 54.0036 15.309C54.073 15.3443 54.1455 15.3619 54.2212 15.3619C54.278 15.3619 54.319 15.3513 54.3442 15.3301C54.3947 15.3936 54.4357 15.4607 54.4673 15.5312C54.4988 15.5948 54.5398 15.6547 54.5903 15.7112ZM51.6283 14.0176C51.6157 13.8977 51.5936 13.813 51.5621 13.7636C51.5368 13.7072 51.5147 13.6401 51.4958 13.5625C51.4706 13.4637 51.4516 13.3579 51.439 13.245C51.4327 13.1321 51.4201 13.0227 51.4012 12.9168C51.357 12.6769 51.3065 12.437 51.2498 12.1971C51.1993 11.9572 51.1331 11.7243 51.051 11.4985C51.0763 11.4561 51.0889 11.4173 51.0889 11.3821V11.3503C51.0321 11.2797 50.9911 11.1951 50.9659 11.0963C50.9406 10.9904 50.9154 10.8881 50.8902 10.7893C50.8712 10.6835 50.8428 10.5882 50.805 10.5035C50.7734 10.4118 50.7198 10.3377 50.6441 10.2812C50.6252 10.3236 50.6157 10.373 50.6157 10.4294C50.6157 10.4788 50.6189 10.5247 50.6252 10.567C50.6378 10.6094 50.6441 10.6552 50.6441 10.7046C50.581 10.7399 50.5337 10.7964 50.5022 10.874C50.4769 10.9446 50.4328 11.001 50.3697 11.0433C50.3192 11.2692 50.2467 11.4844 50.152 11.689C50.0574 11.8866 49.9565 12.0842 49.8492 12.2818C49.7483 12.4793 49.6505 12.6804 49.5558 12.8851C49.4612 13.0827 49.3855 13.2908 49.3287 13.5096C49.2467 13.5731 49.1899 13.6542 49.1584 13.753C49.1332 13.8518 49.1205 13.9506 49.1205 14.0494C49.1773 14.0847 49.2404 14.1058 49.3098 14.1129C49.3855 14.1129 49.4581 14.1129 49.5275 14.1129C49.5969 14.1129 49.6631 14.12 49.7262 14.1341C49.7893 14.1482 49.8461 14.1835 49.8965 14.2399C49.9785 14.2117 50.0669 14.1941 50.1615 14.187C50.2624 14.1729 50.3444 14.1411 50.4075 14.0917C50.5337 14.1411 50.6694 14.1658 50.8145 14.1658C50.8902 14.1658 50.9627 14.1588 51.0321 14.1447C51.1078 14.1305 51.1804 14.1129 51.2498 14.0917C51.3065 14.1058 51.3507 14.1305 51.3823 14.1658C51.4138 14.1941 51.4611 14.2046 51.5242 14.1976C51.5557 14.1694 51.5747 14.1411 51.581 14.1129C51.5873 14.0776 51.6031 14.0459 51.6283 14.0176Z" stroke="url(#paint10_linear_55_16)"/>
<path d="M62 15.9441C62 16.0005 61.9779 16.0464 61.9338 16.0817C61.8896 16.1169 61.8391 16.1522 61.7823 16.1875L61.612 16.2828C61.5552 16.311 61.5174 16.3498 61.4984 16.3992C61.4291 16.378 61.3597 16.3639 61.2903 16.3569C61.2272 16.3498 61.1641 16.3463 61.101 16.3463C61.019 16.3463 60.9338 16.3569 60.8455 16.378C60.7572 16.3921 60.6878 16.438 60.6373 16.5156C60.6057 16.5015 60.5774 16.4945 60.5521 16.4945H60.4764C60.3818 16.4945 60.284 16.5015 60.1831 16.5156C60.0884 16.5368 59.9938 16.5474 59.8992 16.5474C59.8487 16.5474 59.7982 16.5438 59.7477 16.5368C59.7036 16.5297 59.6626 16.5086 59.6247 16.4733C59.5679 16.4945 59.508 16.505 59.4449 16.505C59.3629 16.505 59.284 16.4909 59.2083 16.4627C59.1326 16.4345 59.0569 16.4027 58.9812 16.3674C58.9118 16.3251 58.8393 16.2863 58.7636 16.251C58.6879 16.2157 58.6122 16.1875 58.5365 16.1663L58.4702 16.0181C58.3693 15.997 58.2746 15.9652 58.1863 15.9229C58.1043 15.8735 58.0223 15.8206 57.9403 15.7641C57.8583 15.7077 57.7762 15.6547 57.6942 15.6053C57.6185 15.5489 57.5397 15.5101 57.4576 15.4889C57.4261 15.4607 57.3977 15.436 57.3725 15.4148C57.3472 15.3866 57.3283 15.3478 57.3157 15.2984C57.2337 15.2772 57.158 15.249 57.0886 15.2137L56.8899 15.0973C56.8268 15.0549 56.7542 15.0197 56.6722 14.9914C56.5965 14.9561 56.505 14.935 56.3978 14.9279C56.3599 14.8644 56.3063 14.8044 56.2369 14.748C56.1675 14.6915 56.0981 14.6633 56.0287 14.6633C55.9845 14.6633 55.9498 14.6739 55.9246 14.6951V14.748C55.9246 14.8327 55.9467 14.9173 55.9908 15.002C56.035 15.0867 56.0918 15.1467 56.1612 15.182C56.1549 15.1961 56.1517 15.2172 56.1517 15.2455C56.1517 15.2878 56.158 15.3301 56.1706 15.3725C56.1896 15.4148 56.2211 15.443 56.2653 15.4572C56.24 15.5348 56.2085 15.6159 56.1706 15.7006C56.1328 15.7782 56.0855 15.8523 56.0287 15.9229C55.9719 15.9934 55.9088 16.0534 55.8394 16.1028C55.7763 16.1452 55.7038 16.1663 55.6218 16.1663C55.5965 16.1804 55.5776 16.2016 55.565 16.2298C55.5587 16.2581 55.5524 16.2898 55.5461 16.3251C55.5461 16.3533 55.5398 16.3816 55.5271 16.4098C55.5208 16.438 55.5082 16.4592 55.4893 16.4733C55.4641 16.4803 55.4294 16.4839 55.3852 16.4839C55.3221 16.4839 55.2685 16.4733 55.2243 16.4521C55.1802 16.4309 55.1328 16.4027 55.0824 16.3674V16.3251C55.0824 16.2404 55.0666 16.1734 55.0351 16.124C55.0098 16.0746 54.9783 16.0287 54.9404 15.9864C54.9089 15.937 54.8773 15.8876 54.8458 15.8382C54.8206 15.7888 54.8079 15.7218 54.8079 15.6371C54.789 15.6512 54.7669 15.6618 54.7417 15.6688C54.7228 15.6759 54.7102 15.69 54.7038 15.7112C54.6912 15.6406 54.6849 15.5806 54.6849 15.5312C54.6849 15.3901 54.7038 15.256 54.7417 15.129C54.7859 15.002 54.8079 14.8679 54.8079 14.7268V14.568C54.8079 14.4057 54.8048 14.247 54.7985 14.0917C54.7922 13.9365 54.789 13.7812 54.789 13.626C54.789 13.4919 54.7922 13.3614 54.7985 13.2344C54.8048 13.1003 54.8174 12.9662 54.8363 12.8322C54.9057 12.3664 54.9625 11.9042 55.0067 11.4456C55.0571 10.9798 55.136 10.5176 55.2432 10.059C55.2369 10.0237 55.2275 9.98841 55.2149 9.95312C55.2085 9.91784 55.2054 9.88256 55.2054 9.84728C55.2054 9.81905 55.2085 9.80141 55.2149 9.79435C55.2401 9.65323 55.2969 9.53679 55.3852 9.44506C55.4735 9.34627 55.5871 9.29688 55.7259 9.29688H55.7543C55.83 9.33216 55.8867 9.38508 55.9246 9.45564C55.9688 9.51915 56.035 9.54385 56.1233 9.52974C56.1233 9.54385 56.1202 9.55796 56.1139 9.57208C56.1139 9.58619 56.1139 9.6003 56.1139 9.61442C56.1139 9.69204 56.1328 9.74849 56.1706 9.78377C56.2085 9.81905 56.2527 9.85786 56.3031 9.9002C56.2716 9.97077 56.2495 10.0519 56.2369 10.1436C56.2306 10.2354 56.2243 10.3271 56.218 10.4189C56.2117 10.5106 56.199 10.5988 56.1801 10.6835C56.1675 10.7681 56.1391 10.8387 56.0949 10.8952C56.1202 10.9657 56.1359 11.0363 56.1423 11.1069C56.1486 11.1774 56.1517 11.2515 56.1517 11.3291C56.1517 11.4068 56.1486 11.4879 56.1423 11.5726C56.1359 11.6502 56.1328 11.7314 56.1328 11.816C56.1328 11.8936 56.1423 11.9642 56.1612 12.0277C56.3 12.0277 56.3788 11.9536 56.3978 11.8054C56.5618 11.756 56.7069 11.689 56.8331 11.6043C56.9656 11.5126 57.0917 11.4173 57.2116 11.3185C57.3315 11.2198 57.4482 11.1174 57.5617 11.0116C57.6816 10.9057 57.8141 10.814 57.9592 10.7364V10.7152C57.9592 10.6799 57.9687 10.6588 57.9876 10.6517C58.0065 10.6376 58.0097 10.6058 57.9971 10.5565C58.0917 10.5212 58.1705 10.4753 58.2336 10.4189C58.303 10.3553 58.3661 10.2883 58.4229 10.2177L58.6027 9.99546C58.6658 9.91784 58.7352 9.85081 58.8109 9.79435C58.8614 9.67439 58.9055 9.54738 58.9434 9.41331C58.9875 9.27923 59.0443 9.15575 59.1137 9.04284C59.2336 9.04284 59.3629 9.05343 59.5017 9.0746C59.6468 9.09577 59.7698 9.14516 59.8708 9.22278C59.8582 9.27923 59.8802 9.31804 59.937 9.33921C59.8676 9.63558 59.7635 9.90373 59.6247 10.1436C59.4859 10.3765 59.3061 10.5741 59.0853 10.7364C59.0538 10.814 59.0128 10.881 58.9623 10.9375C58.9118 10.994 58.8614 11.0504 58.8109 11.1069C58.7604 11.1562 58.7099 11.2092 58.6595 11.2656C58.609 11.3221 58.568 11.3891 58.5365 11.4667C58.4608 11.4808 58.3945 11.5055 58.3377 11.5408C58.2873 11.5761 58.2368 11.6184 58.1863 11.6678C58.1422 11.7102 58.0917 11.7525 58.0349 11.7949C57.9844 11.8301 57.9277 11.8584 57.8646 11.8795C57.8141 11.9501 57.7542 12.0101 57.6848 12.0595C57.6217 12.1089 57.5554 12.1583 57.486 12.2077C57.4229 12.25 57.363 12.2994 57.3062 12.3558C57.2495 12.4052 57.2084 12.4723 57.1832 12.557H56.9372C56.8678 12.691 56.7763 12.8039 56.6627 12.8957C56.5555 12.9803 56.4451 13.0615 56.3315 13.1391C56.3504 13.2238 56.3851 13.2944 56.4356 13.3508C56.4861 13.4002 56.5397 13.4461 56.5965 13.4884C56.6596 13.5307 56.7195 13.5766 56.7763 13.626C56.8394 13.6683 56.893 13.7213 56.9372 13.7848C57.2021 13.8977 57.4576 14.0282 57.7037 14.1764C57.9497 14.3175 58.1832 14.4904 58.404 14.6951C58.4166 14.688 58.4324 14.6845 58.4513 14.6845C58.5018 14.6845 58.5428 14.7021 58.5743 14.7374C58.6059 14.7656 58.65 14.7762 58.7068 14.7692C58.732 14.8397 58.7667 14.8891 58.8109 14.9173C58.855 14.9385 58.8992 14.9561 58.9434 14.9703C58.9938 14.9844 59.0412 15.0055 59.0853 15.0338C59.1295 15.062 59.161 15.1114 59.18 15.182C59.2746 15.189 59.3598 15.2102 59.4355 15.2455C59.5175 15.2807 59.59 15.3372 59.6531 15.4148H59.7667C59.9686 15.4148 60.1641 15.436 60.3534 15.4783C60.5427 15.5207 60.7351 15.5418 60.9307 15.5418C61.0316 15.5418 61.1294 15.5348 61.224 15.5207C61.3186 15.4995 61.4101 15.4642 61.4984 15.4148C61.53 15.436 61.5647 15.4572 61.6025 15.4783C61.6404 15.4995 61.6814 15.5101 61.7256 15.5101C61.7571 15.5101 61.8044 15.503 61.8675 15.4889C61.8738 15.5665 61.8959 15.6406 61.9338 15.7112C61.9779 15.7818 62 15.8594 62 15.9441Z" stroke="url(#paint11_linear_55_16)"/>
<path d="M4.66894 18.8065C1.90027 13.129 -1.97587 1.61935 4.66894 1L20.5889 25L4.66894 18.8065Z" stroke="url(#paint12_linear_55_16)"/>
<defs>
<linearGradient id="paint0_linear_55_16" x1="1" y1="13" x2="62" y2="13" gradientUnits="userSpaceOnUse">
<stop stop-color="#FE9431"/>
<stop offset="0.175" stop-color="#673BB7"/>
</linearGradient>
<linearGradient id="paint1_linear_55_16" x1="1" y1="13" x2="62" y2="13" gradientUnits="userSpaceOnUse">
<stop stop-color="#FE9431"/>
<stop offset="0.175" stop-color="#673BB7"/>
</linearGradient>
<linearGradient id="paint2_linear_55_16" x1="1" y1="13" x2="62" y2="13" gradientUnits="userSpaceOnUse">
<stop stop-color="#FE9431"/>
<stop offset="0.175" stop-color="#673BB7"/>
</linearGradient>
<linearGradient id="paint3_linear_55_16" x1="1" y1="13" x2="62" y2="13" gradientUnits="userSpaceOnUse">
<stop stop-color="#FE9431"/>
<stop offset="0.175" stop-color="#673BB7"/>
</linearGradient>
<linearGradient id="paint4_linear_55_16" x1="1" y1="13" x2="62" y2="13" gradientUnits="userSpaceOnUse">
<stop stop-color="#FE9431"/>
<stop offset="0.175" stop-color="#673BB7"/>
</linearGradient>
<linearGradient id="paint5_linear_55_16" x1="1" y1="13" x2="62" y2="13" gradientUnits="userSpaceOnUse">
<stop stop-color="#FE9431"/>
<stop offset="0.175" stop-color="#673BB7"/>
</linearGradient>
<linearGradient id="paint6_linear_55_16" x1="10.7944" y1="1" x2="10.7944" y2="25" gradientUnits="userSpaceOnUse">
<stop stop-color="#673BB7"/>
<stop offset="1" stop-color="#FE9431"/>
</linearGradient>
<linearGradient id="paint7_linear_55_16" x1="10.7944" y1="1" x2="10.7944" y2="25" gradientUnits="userSpaceOnUse">
<stop stop-color="#673BB7"/>
<stop offset="1" stop-color="#FE9431"/>
</linearGradient>
<linearGradient id="paint8_linear_55_16" x1="10.7944" y1="1" x2="10.7944" y2="25" gradientUnits="userSpaceOnUse">
<stop stop-color="#673BB7"/>
<stop offset="1" stop-color="#FE9431"/>
</linearGradient>
<linearGradient id="paint9_linear_55_16" x1="10.7944" y1="1" x2="10.7944" y2="25" gradientUnits="userSpaceOnUse">
<stop stop-color="#673BB7"/>
<stop offset="1" stop-color="#FE9431"/>
</linearGradient>
<linearGradient id="paint10_linear_55_16" x1="10.7944" y1="1" x2="10.7944" y2="25" gradientUnits="userSpaceOnUse">
<stop stop-color="#673BB7"/>
<stop offset="1" stop-color="#FE9431"/>
</linearGradient>
<linearGradient id="paint11_linear_55_16" x1="10.7944" y1="1" x2="10.7944" y2="25" gradientUnits="userSpaceOnUse">
<stop stop-color="#673BB7"/>
<stop offset="1" stop-color="#FE9431"/>
</linearGradient>
<linearGradient id="paint12_linear_55_16" x1="10.7944" y1="1" x2="10.7944" y2="25" gradientUnits="userSpaceOnUse">
<stop stop-color="#673BB7"/>
<stop offset="1" stop-color="#FE9431"/>
</linearGradient>
</defs>
</svg>
